# This file uses centimeters as units for non-parametric coordinates.

mtllib Hero_Holder.mtl
g default
v -2.276428 1.967652 -0.542681
v -2.276428 1.721084 -0.789248
v -2.276428 1.384268 -0.879498
v -2.276428 1.047451 -0.789248
v -2.276428 0.800884 -0.542681
v -2.276428 0.710634 -0.205864
v -2.276428 0.800884 0.130952
v -2.276428 1.047451 0.377519
v -2.276428 1.384268 0.467769
v -2.276428 1.721084 0.377519
v -2.276428 1.967652 0.130952
v -2.276428 2.057902 -0.205864
v -3.260155 1.967652 -0.542681
v -3.260155 1.721084 -0.789248
v -3.260155 1.384268 -0.879498
v -3.260155 1.047451 -0.789248
v -3.260155 0.800884 -0.542681
v -3.260155 0.710634 -0.205864
v -3.260155 0.800884 0.130952
v -3.260155 1.047451 0.377519
v -3.260155 1.384268 0.467769
v -3.260155 1.721084 0.377519
v -3.260155 1.967652 0.130952
v -3.260155 2.057902 -0.205864
v -2.276428 1.384268 -0.205864
v -3.260155 1.895476 -0.501010
v -3.260155 1.679414 -0.717073
v -3.260155 1.384268 -0.796157
v -3.260155 1.089121 -0.717073
v -3.260155 0.873060 -0.501010
v -3.260155 0.793975 -0.205864
v -3.260155 0.873060 0.089282
v -3.260155 1.089121 0.305344
v -3.260155 1.384268 0.384428
v -3.260155 1.679414 0.305344
v -3.260155 1.895476 0.089282
v -3.260155 1.974560 -0.205864
v -3.402292 1.895476 -0.501010
v -3.402292 1.679414 -0.717073
v -3.402292 1.384268 -0.205864
v -3.402292 1.384268 -0.796157
v -3.402292 1.089121 -0.717073
v -3.402292 0.873060 -0.501010
v -3.402292 0.793975 -0.205864
v -3.402292 0.873060 0.089282
v -3.402292 1.089121 0.305344
v -3.402292 1.384268 0.384428
v -3.402292 1.679414 0.305344
v -3.402292 1.895476 0.089282
v -3.402292 1.974560 -0.205864
v -2.119388 0.065647 0.555456
v -1.827804 0.065647 0.555456
v -2.119388 2.215585 0.555456
v -1.827804 2.215585 0.555456
v -2.119388 2.215585 -0.913390
v -1.827804 2.215585 -0.913390
v -2.119388 0.065647 -0.913390
v -1.827804 0.065647 -0.913390
v 1.920873 0.065647 0.555456
v 2.212457 0.065647 0.555456
v 1.920873 2.215585 0.555456
v 2.212457 2.215585 0.555456
v 1.920873 2.215585 -0.913390
v 2.212457 2.215585 -0.913390
v 1.920873 0.065647 -0.913390
v 2.212457 0.065647 -0.913390
v -2.327988 1.681766 -0.626183
v -2.327988 1.133522 -0.626183
v -2.327988 0.859400 -0.151390
v -2.327988 1.133522 0.323403
v -2.327988 1.681766 0.323403
v -2.327988 1.955888 -0.151390
v -2.088532 1.681766 -0.626183
v -2.088532 1.133522 -0.626183
v -2.088532 0.859400 -0.151390
v -2.088532 1.133522 0.323403
v -2.088532 1.681766 0.323403
v -2.088532 1.955888 -0.151390
v -2.327988 1.407644 -0.151390
v -2.088532 1.407644 -0.151390
v -2.453049 1.493980 -0.300929
v -2.453049 1.321308 -0.300929
v -2.453049 1.234972 -0.151390
v -2.453049 1.321308 -0.001851
v -2.453049 1.493980 -0.001851
v -2.453049 1.580317 -0.151390
v -1.772646 1.493980 -0.300929
v -1.772646 1.321308 -0.300929
v -1.772646 1.234972 -0.151390
v -1.772646 1.321308 -0.001851
v -1.772646 1.493980 -0.001851
v -1.772646 1.580317 -0.151390
v -2.453049 1.407644 -0.151390
v -1.772646 1.407644 -0.151390
v -2.228818 0.058571 0.725759
v 2.228818 0.058571 0.725759
v -2.228818 0.279934 0.725759
v 2.228818 0.279934 0.725759
v -2.228818 0.279934 -0.876727
v 2.228818 0.279934 -0.876727
v -2.228818 0.058571 -0.876727
v 2.228818 0.058571 -0.876727
v 0.353689 -0.889029 -0.612608
v -0.353689 -0.889029 -0.612608
v -0.707379 -0.889029 -0.000000
v -0.353689 -0.889029 0.612608
v 0.353689 -0.889029 0.612608
v 0.707379 -0.889029 0.000000
v 0.353689 0.269580 -0.612608
v -0.353689 0.269580 -0.612608
v -0.707379 0.269580 -0.000000
v -0.353689 0.269580 0.612608
v 0.353689 0.269580 0.612608
v 0.707379 0.269580 0.000000
v 0.000000 -0.889029 0.000000
v 0.000000 0.269580 0.000000
vt 0.636312 0.692215
vt 0.636312 0.717298
vt 0.536237 0.717298
vt 0.536237 0.692215
vt 0.475607 0.726204
vt 0.509871 0.726204
vt 0.509871 0.826278
vt 0.475607 0.826278
vt 0.544135 0.726204
vt 0.544135 0.826278
vt 0.747633 0.624701
vt 0.747633 0.649784
vt 0.647558 0.649784
vt 0.647558 0.624701
vt 0.747633 0.684049
vt 0.647558 0.684049
vt 0.747633 0.718313
vt 0.647558 0.718313
vt 0.747633 0.743396
vt 0.647558 0.743396
vt 0.396259 0.650806
vt 0.430523 0.650806
vt 0.430523 0.750881
vt 0.396259 0.750881
vt 0.464788 0.650806
vt 0.464788 0.750881
vt 0.636312 0.598603
vt 0.636312 0.623686
vt 0.536237 0.623686
vt 0.536237 0.598603
vt 0.636312 0.657950
vt 0.536237 0.657950
vt 0.161257 0.587932
vt 0.136174 0.613016
vt 0.101909 0.553668
vt 0.170438 0.553668
vt 0.161257 0.519404
vt 0.136174 0.494320
vt 0.101909 0.485139
vt 0.067645 0.494320
vt 0.042562 0.519404
vt 0.033380 0.553668
vt 0.042562 0.587932
vt 0.067645 0.613016
vt 0.101909 0.622197
vt 0.434069 0.633855
vt 0.412089 0.611875
vt 0.464094 0.581850
vt 0.404044 0.581850
vt 0.412089 0.551825
vt 0.434069 0.529845
vt 0.464094 0.521800
vt 0.494120 0.529845
vt 0.516100 0.551825
vt 0.524145 0.581850
vt 0.516100 0.611875
vt 0.494120 0.633855
vt 0.464094 0.641901
vt 0.215667 0.613016
vt 0.190583 0.587932
vt 0.197926 0.583693
vt 0.219906 0.605673
vt 0.181402 0.553668
vt 0.189881 0.553668
vt 0.190583 0.519404
vt 0.197926 0.523643
vt 0.215667 0.494320
vt 0.219906 0.501663
vt 0.249931 0.485139
vt 0.249931 0.493617
vt 0.284196 0.494320
vt 0.279956 0.501663
vt 0.309279 0.519404
vt 0.301936 0.523643
vt 0.318460 0.553668
vt 0.309982 0.553668
vt 0.309279 0.587932
vt 0.301936 0.583693
vt 0.284196 0.613016
vt 0.279956 0.605673
vt 0.249931 0.622197
vt 0.249931 0.613718
vt 0.594693 0.808234
vt 0.594693 0.830214
vt 0.580233 0.830214
vt 0.580233 0.808234
vt 0.583745 0.839120
vt 0.583745 0.869145
vt 0.569286 0.869145
vt 0.569286 0.839120
vt 0.583745 0.899170
vt 0.569286 0.899170
vt 0.569414 0.726204
vt 0.569414 0.748184
vt 0.554955 0.748184
vt 0.554955 0.726204
vt 0.569414 0.778209
vt 0.554955 0.778209
vt 0.569414 0.808234
vt 0.554955 0.808234
vt 0.569414 0.830214
vt 0.554955 0.830214
vt 0.609836 0.872753
vt 0.609836 0.902779
vt 0.595376 0.902779
vt 0.595376 0.872753
vt 0.609836 0.932804
vt 0.595376 0.932804
vt 0.594693 0.726204
vt 0.594693 0.748184
vt 0.580233 0.748184
vt 0.580233 0.726204
vt 0.594693 0.778209
vt 0.580233 0.778209
vt 0.375000 0.000000
vt 0.625000 0.000000
vt 0.625000 0.250000
vt 0.375000 0.250000
vt 0.625000 0.500000
vt 0.375000 0.500000
vt 0.625000 0.750000
vt 0.375000 0.750000
vt 0.625000 1.000000
vt 0.375000 1.000000
vt 0.875000 0.000000
vt 0.875000 0.250000
vt 0.125000 0.000000
vt 0.125000 0.250000
vt 0.375000 0.000000
vt 0.625000 0.000000
vt 0.625000 0.250000
vt 0.375000 0.250000
vt 0.625000 0.500000
vt 0.375000 0.500000
vt 0.625000 0.750000
vt 0.375000 0.750000
vt 0.625000 1.000000
vt 0.375000 1.000000
vt 0.875000 0.000000
vt 0.875000 0.250000
vt 0.125000 0.000000
vt 0.125000 0.250000
vt 0.079679 0.658989
vt 0.104039 0.658989
vt 0.104039 0.714762
vt 0.079679 0.714762
vt 0.325901 0.631102
vt 0.350261 0.631102
vt 0.350261 0.679403
vt 0.325901 0.679403
vt 0.350261 0.727704
vt 0.325901 0.727704
vt 0.044500 0.631102
vt 0.068860 0.631102
vt 0.068860 0.686875
vt 0.044500 0.686875
vt 0.068860 0.714762
vt 0.044500 0.714762
vt 0.079679 0.631102
vt 0.104039 0.631102
vt 0.712932 0.780188
vt 0.761233 0.808075
vt 0.712932 0.835961
vt 0.761233 0.752302
vt 0.809534 0.780188
vt 0.809534 0.835961
vt 0.761233 0.863848
vt 0.702113 0.835961
vt 0.653812 0.808075
vt 0.702113 0.780188
vt 0.653812 0.752302
vt 0.605512 0.780188
vt 0.605512 0.835961
vt 0.653812 0.863848
vt 0.431960 0.829004
vt 0.431960 0.759787
vt 0.449526 0.759787
vt 0.449526 0.829004
vt 0.461444 0.904401
vt 0.461444 0.835184
vt 0.476656 0.835184
vt 0.476656 0.904401
vt 0.491869 0.835184
vt 0.491869 0.904401
vt 0.503189 0.904401
vt 0.503189 0.835184
vt 0.520755 0.835184
vt 0.520755 0.904401
vt 0.529538 0.835184
vt 0.529538 0.904401
vt 0.423177 0.829004
vt 0.423177 0.759787
vt 0.795406 0.881536
vt 0.810618 0.890319
vt 0.795406 0.899102
vt 0.810618 0.872753
vt 0.825831 0.881536
vt 0.825831 0.899102
vt 0.810618 0.907885
vt 0.867576 0.891953
vt 0.852364 0.883170
vt 0.867576 0.874387
vt 0.852364 0.865604
vt 0.837151 0.874387
vt 0.837151 0.891953
vt 0.852364 0.900736
vt 0.375000 0.000000
vt 0.625000 0.000000
vt 0.625000 0.250000
vt 0.375000 0.250000
vt 0.625000 0.500000
vt 0.375000 0.500000
vt 0.625000 0.750000
vt 0.375000 0.750000
vt 0.625000 1.000000
vt 0.375000 1.000000
vt 0.875000 0.000000
vt 0.875000 0.250000
vt 0.125000 0.000000
vt 0.125000 0.250000
vt 0.375000 0.312500
vt 0.416667 0.312500
vt 0.416667 0.688440
vt 0.375000 0.688440
vt 0.458333 0.312500
vt 0.458333 0.688440
vt 0.500000 0.312500
vt 0.500000 0.688440
vt 0.541667 0.312500
vt 0.541667 0.688440
vt 0.583333 0.312500
vt 0.583333 0.688440
vt 0.625000 0.312500
vt 0.625000 0.688440
vt 0.421875 0.020934
vt 0.578125 0.020934
vt 0.500000 0.150000
vt 0.343750 0.156250
vt 0.421875 0.291566
vt 0.578125 0.291566
vt 0.656250 0.156250
vt 0.578125 0.979066
vt 0.421875 0.979066
vt 0.500000 0.837500
vt 0.343750 0.843750
vt 0.421875 0.708434
vt 0.578125 0.708434
vt 0.656250 0.843750
vn 0.000000 0.866025 -0.500001
vn 0.000000 0.500000 -0.866026
vn 0.000000 0.500000 -0.866026
vn 0.000000 0.866025 -0.500001
vn 0.000000 -0.000000 -1.000000
vn 0.000000 -0.000000 -1.000000
vn 0.000000 -0.500000 -0.866026
vn 0.000000 -0.500000 -0.866026
vn 0.000000 -0.866025 -0.500001
vn 0.000000 -0.866025 -0.500001
vn 0.000000 -1.000000 0.000000
vn 0.000000 -1.000000 0.000000
vn 0.000000 -0.866025 0.500001
vn 0.000000 -0.866025 0.500001
vn 0.000000 -0.500000 0.866025
vn 0.000000 -0.500000 0.866025
vn 0.000000 0.000000 1.000000
vn 0.000000 0.000000 1.000000
vn 0.000000 0.500000 0.866026
vn 0.000000 0.500000 0.866026
vn 0.000000 0.866025 0.500001
vn 0.000000 0.866025 0.500001
vn 0.000000 1.000000 0.000000
vn 0.000000 1.000000 0.000000
vn 1.000000 0.000000 0.000000
vn 1.000000 0.000001 0.000000
vn 1.000000 0.000000 0.000000
vn 1.000000 0.000000 0.000000
vn 1.000000 0.000000 0.000000
vn 1.000000 -0.000000 0.000000
vn 1.000000 0.000000 0.000000
vn 1.000000 -0.000001 0.000000
vn 1.000000 -0.000001 0.000000
vn 1.000000 0.000000 0.000000
vn 1.000000 0.000000 0.000000
vn 1.000000 0.000000 0.000000
vn 1.000000 0.000000 0.000000
vn -1.000000 0.000001 0.000000
vn -1.000000 0.000000 0.000000
vn -1.000000 0.000000 0.000000
vn -1.000000 0.000001 0.000000
vn -1.000000 0.000001 0.000000
vn -1.000000 -0.000001 0.000000
vn -1.000000 0.000000 0.000000
vn -1.000000 0.000000 0.000000
vn -1.000000 0.000000 0.000000
vn -1.000000 0.000000 0.000000
vn -1.000000 0.000000 0.000000
vn -1.000000 0.000000 0.000000
vn -1.000000 0.000000 0.000000
vn -1.000000 -0.000002 0.000000
vn -1.000000 -0.000002 0.000000
vn -1.000000 -0.000002 0.000000
vn -1.000000 -0.000002 0.000000
vn -1.000000 0.000000 0.000000
vn -1.000000 0.000000 0.000000
vn -1.000000 0.000000 0.000000
vn -1.000000 0.000000 0.000000
vn -1.000000 0.000000 0.000000
vn -1.000000 0.000000 0.000000
vn -1.000000 0.000000 0.000000
vn -1.000000 0.000000 0.000000
vn -1.000000 0.000001 0.000000
vn -1.000000 0.000001 0.000000
vn -1.000000 0.000001 0.000000
vn -1.000000 0.000001 0.000000
vn -1.000000 0.000001 0.000000
vn -1.000000 0.000001 0.000000
vn -1.000000 0.000001 0.000000
vn -1.000000 0.000001 0.000000
vn -1.000000 0.000000 0.000000
vn -1.000000 0.000000 0.000000
vn -1.000000 0.000000 0.000000
vn -1.000000 0.000000 0.000000
vn -1.000000 0.000000 0.000000
vn -1.000000 0.000000 0.000000
vn -1.000000 0.000000 0.000000
vn -1.000000 0.000000 0.000000
vn -1.000000 0.000001 0.000000
vn -1.000000 0.000001 0.000000
vn -1.000000 0.000001 0.000000
vn -1.000000 0.000001 0.000000
vn -1.000000 -0.000001 0.000000
vn -1.000000 -0.000001 0.000000
vn -1.000000 -0.000001 0.000000
vn -1.000000 -0.000001 0.000000
vn -1.000000 0.000001 0.000000
vn -1.000000 0.000001 0.000000
vn -1.000000 0.000001 0.000000
vn -1.000000 0.000001 0.000000
vn -1.000000 0.000000 0.000000
vn -1.000000 0.000000 0.000000
vn -1.000000 0.000000 0.000000
vn -1.000000 0.000000 0.000000
vn -1.000000 0.000000 0.000000
vn -1.000000 0.000000 0.000000
vn -1.000000 0.000000 0.000000
vn -1.000000 0.000000 0.000000
vn 0.000000 0.866025 -0.500001
vn 0.000000 0.500000 -0.866026
vn 0.000000 0.500000 -0.866026
vn 0.000000 0.866025 -0.500001
vn 0.000000 0.000000 -1.000000
vn 0.000000 0.000000 -1.000000
vn 0.000000 -0.500000 -0.866026
vn 0.000000 -0.500000 -0.866026
vn 0.000000 -0.866025 -0.500000
vn 0.000000 -0.866025 -0.500000
vn 0.000000 -1.000000 0.000000
vn 0.000000 -1.000000 0.000000
vn 0.000000 -0.866025 0.500000
vn 0.000000 -0.866025 0.500000
vn 0.000000 -0.500000 0.866026
vn 0.000000 -0.500000 0.866026
vn 0.000000 -0.000000 1.000000
vn 0.000000 -0.000000 1.000000
vn 0.000000 0.500000 0.866026
vn 0.000000 0.500000 0.866026
vn 0.000000 0.866025 0.500000
vn 0.000000 0.866025 0.500000
vn 0.000000 1.000000 -0.000000
vn 0.000000 1.000000 -0.000000
vn 0.000000 0.000000 1.000000
vn 0.000000 0.000000 1.000000
vn 0.000000 0.000000 1.000000
vn 0.000000 0.000000 1.000000
vn 0.000000 1.000000 0.000000
vn 0.000000 1.000000 0.000000
vn 0.000000 1.000000 0.000000
vn 0.000000 1.000000 0.000000
vn 0.000000 0.000000 -1.000000
vn 0.000000 0.000000 -1.000000
vn 0.000000 0.000000 -1.000000
vn 0.000000 0.000000 -1.000000
vn 0.000000 -1.000000 0.000000
vn 0.000000 -1.000000 0.000000
vn 0.000000 -1.000000 0.000000
vn 0.000000 -1.000000 0.000000
vn 1.000000 0.000000 0.000000
vn 1.000000 0.000000 0.000000
vn 1.000000 0.000000 0.000000
vn 1.000000 0.000000 0.000000
vn -1.000000 0.000000 0.000000
vn -1.000000 0.000000 0.000000
vn -1.000000 0.000000 0.000000
vn -1.000000 0.000000 0.000000
vn 0.000000 0.000000 1.000000
vn 0.000000 0.000000 1.000000
vn 0.000000 0.000000 1.000000
vn 0.000000 0.000000 1.000000
vn 0.000000 1.000000 0.000000
vn 0.000000 1.000000 0.000000
vn 0.000000 1.000000 0.000000
vn 0.000000 1.000000 0.000000
vn 0.000000 0.000000 -1.000000
vn 0.000000 0.000000 -1.000000
vn 0.000000 0.000000 -1.000000
vn 0.000000 0.000000 -1.000000
vn 0.000000 -1.000000 0.000000
vn 0.000000 -1.000000 0.000000
vn 0.000000 -1.000000 0.000000
vn 0.000000 -1.000000 0.000000
vn 1.000000 0.000000 0.000000
vn 1.000000 0.000000 0.000000
vn 1.000000 0.000000 0.000000
vn 1.000000 0.000000 0.000000
vn -1.000000 0.000000 0.000000
vn -1.000000 0.000000 0.000000
vn -1.000000 0.000000 0.000000
vn -1.000000 0.000000 0.000000
vn 0.000000 0.500000 -0.866025
vn 0.000000 0.500000 -0.866025
vn 0.000000 -0.500000 -0.866026
vn 0.000000 -0.500000 -0.866026
vn 0.000000 -1.000000 -0.000000
vn 0.000000 -1.000000 -0.000000
vn 0.000000 -0.500000 0.866025
vn 0.000000 -0.500000 0.866025
vn 0.000000 0.500000 0.866026
vn 0.000000 0.500000 0.866026
vn 0.000000 1.000000 0.000000
vn 0.000000 1.000000 0.000000
vn -1.000000 -0.000000 0.000000
vn -1.000000 0.000000 0.000000
vn -1.000000 -0.000000 0.000000
vn -1.000000 0.000000 0.000000
vn -1.000000 0.000000 0.000000
vn -1.000000 0.000000 0.000000
vn -1.000000 0.000000 0.000000
vn 1.000000 0.000000 0.000000
vn 1.000000 0.000000 0.000000
vn 1.000000 0.000000 0.000000
vn 1.000000 0.000000 0.000000
vn 1.000000 0.000000 0.000000
vn 1.000000 0.000000 0.000000
vn 1.000000 0.000000 0.000000
vn 0.000000 0.500000 -0.866026
vn 0.000000 0.500000 -0.866026
vn 0.000000 -0.500000 -0.866025
vn 0.000000 -0.500000 -0.866025
vn 0.000000 -1.000000 0.000000
vn 0.000000 -1.000000 0.000000
vn 0.000000 -0.500000 0.866026
vn 0.000000 -0.500000 0.866026
vn 0.000000 0.500000 0.866026
vn 0.000000 0.500000 0.866026
vn 0.000000 1.000000 -0.000000
vn 0.000000 1.000000 -0.000000
vn -1.000000 0.000000 0.000000
vn -1.000000 0.000000 0.000000
vn -1.000000 0.000000 0.000000
vn -1.000000 0.000000 0.000000
vn -1.000000 0.000000 0.000000
vn -1.000000 0.000000 0.000000
vn -1.000000 0.000000 0.000000
vn 1.000000 0.000000 0.000000
vn 1.000000 0.000000 0.000000
vn 1.000000 0.000000 0.000000
vn 1.000000 0.000000 0.000000
vn 1.000000 0.000000 0.000000
vn 1.000000 0.000000 0.000000
vn 1.000000 0.000000 0.000000
vn 0.000000 0.000000 1.000000
vn 0.000000 0.000000 1.000000
vn 0.000000 0.000000 1.000000
vn 0.000000 0.000000 1.000000
vn 0.000000 1.000000 0.000000
vn 0.000000 1.000000 0.000000
vn 0.000000 1.000000 0.000000
vn 0.000000 1.000000 0.000000
vn 0.000000 0.000000 -1.000000
vn 0.000000 0.000000 -1.000000
vn 0.000000 0.000000 -1.000000
vn 0.000000 0.000000 -1.000000
vn 0.000000 -1.000000 0.000000
vn 0.000000 -1.000000 0.000000
vn 0.000000 -1.000000 0.000000
vn 0.000000 -1.000000 0.000000
vn 1.000000 0.000000 0.000000
vn 1.000000 0.000000 0.000000
vn 1.000000 0.000000 0.000000
vn 1.000000 0.000000 0.000000
vn -1.000000 0.000000 0.000000
vn -1.000000 0.000000 0.000000
vn -1.000000 0.000000 0.000000
vn -1.000000 0.000000 0.000000
vn 0.500000 0.000000 -0.866025
vn -0.500000 0.000000 -0.866026
vn -0.500000 0.000000 -0.866026
vn 0.500000 0.000000 -0.866025
vn -1.000000 0.000000 -0.000000
vn -1.000000 0.000000 -0.000000
vn -0.500000 0.000000 0.866025
vn -0.500000 0.000000 0.866025
vn 0.500000 0.000000 0.866025
vn 0.500000 0.000000 0.866025
vn 1.000000 0.000000 0.000000
vn 1.000000 0.000000 0.000000
vn 0.000000 -1.000000 0.000000
vn 0.000000 -1.000000 0.000000
vn 0.000000 -1.000000 0.000000
vn 0.000000 -1.000000 0.000000
vn 0.000000 -1.000000 -0.000000
vn 0.000000 -1.000000 0.000000
vn 0.000000 -1.000000 0.000000
vn 0.000000 1.000000 0.000000
vn 0.000000 1.000000 -0.000000
vn 0.000000 1.000000 0.000000
vn 0.000000 1.000000 -0.000000
vn 0.000000 1.000000 -0.000000
vn 0.000000 1.000000 0.000000
vn 0.000000 1.000000 0.000000
s 1
g polySurface410
usemtl initialShadingGroup
f 1/1/1 2/2/2 14/3/3 13/4/4
f 2/5/2 3/6/5 15/7/6 14/8/3
f 3/6/5 4/9/7 16/10/8 15/7/6
f 4/11/7 5/12/9 17/13/10 16/14/8
f 5/12/9 6/15/11 18/16/12 17/13/10
f 6/15/11 7/17/13 19/18/14 18/16/12
f 7/17/13 8/19/15 20/20/16 19/18/14
f 8/21/15 9/22/17 21/23/18 20/24/16
f 9/22/17 10/25/19 22/26/20 21/23/18
f 10/27/19 11/28/21 23/29/22 22/30/20
f 11/28/21 12/31/23 24/32/24 23/29/22
f 12/31/23 1/1/1 13/4/4 24/32/24
s 2
f 2/33/25 1/34/26 25/35/27
f 3/36/28 2/33/25 25/35/27
f 4/37/29 3/36/28 25/35/27
f 5/38/30 4/37/29 25/35/27
f 6/39/31 5/38/30 25/35/27
f 7/40/32 6/39/31 25/35/27
f 8/41/33 7/40/32 25/35/27
f 9/42/34 8/41/33 25/35/27
f 10/43/35 9/42/34 25/35/27
f 11/44/36 10/43/35 25/35/27
f 12/45/37 11/44/36 25/35/27
f 1/34/26 12/45/37 25/35/27
s 3
f 38/46/38 39/47/39 40/48/40
f 39/47/39 41/49/41 40/48/40
f 41/49/41 42/50/42 40/48/40
f 42/50/42 43/51/43 40/48/40
f 43/51/43 44/52/44 40/48/40
f 44/52/44 45/53/45 40/48/40
f 45/53/45 46/54/46 40/48/40
f 46/54/46 47/55/47 40/48/40
f 47/55/47 48/56/48 40/48/40
f 48/56/48 49/57/49 40/48/40
f 49/57/49 50/58/50 40/48/40
f 50/58/50 38/46/38 40/48/40
s off
f 13/59/51 14/60/52 27/61/53 26/62/54
f 14/60/55 15/63/56 28/64/57 27/61/58
f 15/63/59 16/65/60 29/66/61 28/64/62
f 16/65/63 17/67/64 30/68/65 29/66/66
f 17/67/67 18/69/68 31/70/69 30/68/70
f 18/69/71 19/71/72 32/72/73 31/70/74
f 19/71/75 20/73/76 33/74/77 32/72/78
f 20/73/79 21/75/80 34/76/81 33/74/82
f 21/75/83 22/77/84 35/78/85 34/76/86
f 22/77/87 23/79/88 36/80/89 35/78/90
f 23/79/91 24/81/92 37/82/93 36/80/94
f 24/81/95 13/59/96 26/62/97 37/82/98
s 4
f 26/83/99 27/84/100 39/85/101 38/86/102
f 27/87/100 28/88/103 41/89/104 39/90/101
f 28/88/103 29/91/105 42/92/106 41/89/104
f 29/93/105 30/94/107 43/95/108 42/96/106
f 30/94/107 31/97/109 44/98/110 43/95/108
f 31/97/109 32/99/111 45/100/112 44/98/110
f 32/99/111 33/101/113 46/102/114 45/100/112
f 33/103/113 34/104/115 47/105/116 46/106/114
f 34/104/115 35/107/117 48/108/118 47/105/116
f 35/109/117 36/110/119 49/111/120 48/112/118
f 36/110/119 37/113/121 50/114/122 49/111/120
f 37/113/121 26/83/99 38/86/102 50/114/122
s off
f 51/115/123 52/116/124 54/117/125 53/118/126
f 53/118/127 54/117/128 56/119/129 55/120/130
f 55/120/131 56/119/132 58/121/133 57/122/134
f 57/122/135 58/121/136 52/123/137 51/124/138
f 52/116/139 58/125/140 56/126/141 54/117/142
f 57/127/143 51/115/144 53/118/145 55/128/146
f 59/129/147 60/130/148 62/131/149 61/132/150
f 61/132/151 62/131/152 64/133/153 63/134/154
f 63/134/155 64/133/156 66/135/157 65/136/158
f 65/136/159 66/135/160 60/137/161 59/138/162
f 60/130/163 66/139/164 64/140/165 62/131/166
f 65/141/167 59/129/168 61/132/169 63/142/170
s 5
f 67/143/171 73/144/172 74/145/173 68/146/174
f 68/147/174 74/148/173 75/149/175 69/150/176
f 69/150/176 75/149/175 76/151/177 70/152/178
f 70/153/178 76/154/177 77/155/179 71/156/180
f 71/156/180 77/155/179 78/157/181 72/158/182
f 72/159/182 78/160/181 73/144/172 67/143/171
s 6
f 68/161/183 79/162/184 67/163/185
f 69/164/186 79/162/184 68/161/183
f 70/165/187 79/162/184 69/164/186
f 71/166/188 79/162/184 70/165/187
f 72/167/189 79/162/184 71/166/188
f 67/163/185 79/162/184 72/167/189
s 7
f 73/168/190 80/169/191 74/170/192
f 74/170/192 80/169/191 75/171/193
f 75/171/193 80/169/191 76/172/194
f 76/172/194 80/169/191 77/173/195
f 77/173/195 80/169/191 78/174/196
f 78/174/196 80/169/191 73/168/190
s 8
f 81/175/197 87/176/198 88/177/199 82/178/200
f 82/179/200 88/180/199 89/181/201 83/182/202
f 83/182/202 89/181/201 90/183/203 84/184/204
f 84/185/204 90/186/203 91/187/205 85/188/206
f 85/188/206 91/187/205 92/189/207 86/190/208
f 86/191/208 92/192/207 87/176/198 81/175/197
s 9
f 82/193/209 93/194/210 81/195/211
f 83/196/212 93/194/210 82/193/209
f 84/197/213 93/194/210 83/196/212
f 85/198/214 93/194/210 84/197/213
f 86/199/215 93/194/210 85/198/214
f 81/195/211 93/194/210 86/199/215
s 10
f 87/200/216 94/201/217 88/202/218
f 88/202/218 94/201/217 89/203/219
f 89/203/219 94/201/217 90/204/220
f 90/204/220 94/201/217 91/205/221
f 91/205/221 94/201/217 92/206/222
f 92/206/222 94/201/217 87/200/216
s off
f 95/207/223 96/208/224 98/209/225 97/210/226
f 97/210/227 98/209/228 100/211/229 99/212/230
f 99/212/231 100/211/232 102/213/233 101/214/234
f 101/214/235 102/213/236 96/215/237 95/216/238
f 96/208/239 102/217/240 100/218/241 98/209/242
f 101/219/243 95/207/244 97/210/245 99/220/246
s 11
f 103/221/247 104/222/248 110/223/249 109/224/250
f 104/222/248 105/225/251 111/226/252 110/223/249
f 105/225/251 106/227/253 112/228/254 111/226/252
f 106/227/253 107/229/255 113/230/256 112/228/254
f 107/229/255 108/231/257 114/232/258 113/230/256
f 108/231/257 103/233/247 109/234/250 114/232/258
s 12
f 104/235/259 103/236/260 115/237/261
f 105/238/262 104/235/259 115/237/261
f 106/239/263 105/238/262 115/237/261
f 107/240/264 106/239/263 115/237/261
f 108/241/265 107/240/264 115/237/261
f 103/236/260 108/241/265 115/237/261
s 13
f 109/242/266 110/243/267 116/244/268
f 110/243/267 111/245/269 116/244/268
f 111/245/269 112/246/270 116/244/268
f 112/246/270 113/247/271 116/244/268
f 113/247/271 114/248/272 116/244/268
f 114/248/272 109/242/266 116/244/268
