# This file uses centimeters as units for non-parametric coordinates.

mtllib Ceilling.mtl
g default
v -71.206439 20.033168 56.269779
v 71.206439 20.033168 56.269779
v -71.206439 20.033168 -56.269779
v 71.206439 20.033168 -56.269779
v -83.851182 20.033168 0.000000
v 83.851182 20.033168 0.000000
v 0.000000 20.033168 66.262075
v 0.000000 61.571199 0.000000
v 0.000000 20.033168 -66.262075
v -41.925591 20.033168 66.262075
v -61.519382 47.659004 0.000000
v -41.925591 20.033168 -66.262075
v 41.925591 20.033168 66.262075
v 61.519382 47.659004 0.000000
v 41.925591 20.033168 -66.262075
v -83.851182 20.033168 -33.131037
v -55.713782 47.659004 -44.026958
v 0.000000 47.659004 -48.614734
v 55.713782 47.659004 -44.026958
v 83.851182 20.033168 -33.131037
v -83.851182 20.033168 33.131037
v -55.713782 47.659004 44.026958
v 0.000000 47.659004 48.614734
v 55.713782 47.659004 44.026958
v 83.851182 20.033168 33.131037
v 83.851182 20.033168 -13.252420
v 61.519382 47.659004 -19.445906
v 0.000000 61.571199 -19.445906
v -61.519382 47.659004 -19.445906
v -83.851182 20.033168 -13.252420
v -83.851182 20.033168 16.565519
v -61.519382 47.659004 24.307367
v 0.000000 61.571199 24.307367
v 61.519382 47.659004 24.307367
v 83.851182 20.033168 16.565519
v -20.962795 20.033168 66.262075
v -30.759691 47.659004 48.614734
v -30.759691 61.571199 24.307367
v -30.759691 61.571199 0.000000
v -30.759691 61.571199 -19.445906
v -30.759691 47.659004 -48.614734
v -20.962795 20.033168 -66.262075
v 20.962795 20.033168 66.262075
v 30.759691 47.659004 48.614734
v 30.759691 61.571199 24.307367
v 30.759691 61.571199 0.000000
v 30.759691 61.571199 -19.445906
v 30.759691 47.659004 -48.614734
v 20.962795 20.033168 -66.262075
vt 0.375000 0.750000
vt 0.625000 0.750000
vt 0.375000 1.000000
vt 0.625000 1.000000
vt 0.375000 0.875000
vt 0.625000 0.875000
vt 0.500000 1.000000
vt 0.500000 0.875000
vt 0.500000 0.750000
vt 0.437500 1.000000
vt 0.437500 0.875000
vt 0.437500 0.750000
vt 0.562500 1.000000
vt 0.562500 0.875000
vt 0.562500 0.750000
vt 0.375000 0.812500
vt 0.437500 0.812500
vt 0.500000 0.812500
vt 0.562500 0.812500
vt 0.625000 0.812500
vt 0.375000 0.937500
vt 0.437500 0.937500
vt 0.500000 0.937500
vt 0.562500 0.937500
vt 0.625000 0.937500
vt 0.625000 0.850000
vt 0.562500 0.850000
vt 0.500000 0.850000
vt 0.437500 0.850000
vt 0.375000 0.850000
vt 0.375000 0.906250
vt 0.437500 0.906250
vt 0.500000 0.906250
vt 0.562500 0.906250
vt 0.625000 0.906250
vt 0.468750 1.000000
vt 0.468750 0.937500
vt 0.468750 0.906250
vt 0.468750 0.875000
vt 0.468750 0.850000
vt 0.468750 0.812500
vt 0.468750 0.750000
vt 0.531250 1.000000
vt 0.531250 0.937500
vt 0.531250 0.906250
vt 0.531250 0.875000
vt 0.531250 0.850000
vt 0.531250 0.812500
vt 0.531250 0.750000
vn -0.250091 -0.578893 -0.776104
vn -0.415740 -0.743249 -0.524159
vn -0.679997 -0.642436 -0.353383
vn -0.509029 -0.570930 -0.644149
vn -0.763874 -0.643265 0.052032
vn -0.579958 -0.808112 0.102973
vn -0.428209 -0.766804 0.478172
vn -0.691179 -0.651958 0.311805
vn 0.031688 -0.547129 -0.836448
vn 0.077565 -0.739250 -0.668949
vn 0.000000 -0.725448 -0.688277
vn 0.000000 -0.538335 -0.842731
vn 0.000000 -0.961408 0.275128
vn 0.157731 -0.963504 0.216288
vn 0.081862 -0.775885 0.625540
vn 0.000000 -0.764217 0.644959
vn 0.679997 -0.642436 -0.353384
vn 0.415740 -0.743248 -0.524159
vn 0.250091 -0.578893 -0.776104
vn 0.509029 -0.570930 -0.644149
vn 0.691179 -0.651958 0.311805
vn 0.428209 -0.766804 0.478171
vn 0.579958 -0.808112 0.102973
vn 0.763874 -0.643265 0.052032
vn -0.031688 -0.547129 -0.836448
vn -0.077565 -0.739250 -0.668949
vn -0.157731 -0.963504 0.216288
vn -0.081862 -0.775885 0.625540
vn 0.509029 -0.570930 0.644149
vn 0.250091 -0.578893 0.776104
vn 0.031688 -0.547129 0.836448
vn 0.000000 -0.538335 0.842731
vn -0.031688 -0.547129 0.836448
vn -0.250091 -0.578893 0.776104
vn -0.509029 -0.570930 0.644149
vn 0.768933 -0.637406 -0.049551
vn 0.585688 -0.804031 -0.102486
vn 0.168519 -0.962354 -0.213252
vn 0.000000 -0.961408 -0.275128
vn -0.168519 -0.962354 -0.213252
vn -0.585688 -0.804031 -0.102486
vn -0.768933 -0.637406 -0.049551
vn -0.599868 -0.800099 0.000000
vn -0.777685 -0.628654 0.000000
vn -0.220573 -0.975370 0.000000
vn 0.220573 -0.975370 0.000000
vn 0.000000 -1.000000 0.000000
vn 0.599868 -0.800099 0.000000
vn 0.777685 -0.628654 0.000000
s 1
g pCube120
usemtl initialShadingGroup
f 13/13/1 24/24/2 25/25/3 2/4/4
f 26/26/5 27/27/6 19/19/7 20/20/8
f 36/36/9 37/37/10 23/23/11 7/7/12
f 28/28/13 40/40/14 41/41/15 18/18/16
f 21/21/17 22/22/18 10/10/19 1/3/20
f 16/16/21 17/17/22 29/29/23 30/30/24
f 43/43/25 44/44/26 24/24/2 13/13/1
f 27/27/6 47/47/27 48/48/28 19/19/7
f 3/1/29 12/12/30 17/17/22 16/16/21
f 18/18/16 41/41/15 42/42/31 9/9/32
f 19/19/7 48/48/28 49/49/33 15/15/34
f 20/20/8 19/19/7 15/15/34 4/2/35
f 31/31/36 32/32/37 22/22/18 21/21/17
f 23/23/11 37/37/10 38/38/38 33/33/39
f 24/24/2 44/44/26 45/45/40 34/34/41
f 25/25/3 24/24/2 34/34/41 35/35/42
f 14/14/43 27/27/6 26/26/5 6/6/44
f 46/46/45 47/47/27 27/27/6 14/14/43
f 39/39/46 40/40/14 28/28/13 8/8/47
f 30/30/24 29/29/23 11/11/48 5/5/49
f 5/5/49 11/11/48 32/32/37 31/31/36
f 33/33/39 38/38/38 39/39/46 8/8/47
f 34/34/41 45/45/40 46/46/45 14/14/43
f 35/35/42 34/34/41 14/14/43 6/6/44
f 10/10/19 22/22/18 37/37/10 36/36/9
f 38/38/38 37/37/10 22/22/18 32/32/37
f 39/39/46 38/38/38 32/32/37 11/11/48
f 11/11/48 29/29/23 40/40/14 39/39/46
f 41/41/15 40/40/14 29/29/23 17/17/22
f 42/42/31 41/41/15 17/17/22 12/12/30
f 7/7/12 23/23/11 44/44/26 43/43/25
f 45/45/40 44/44/26 23/23/11 33/33/39
f 46/46/45 45/45/40 33/33/39 8/8/47
f 8/8/47 28/28/13 47/47/27 46/46/45
f 48/48/28 47/47/27 28/28/13 18/18/16
f 49/49/33 48/48/28 18/18/16 9/9/32
