# This file uses centimeters as units for non-parametric coordinates.

mtllib RM2018_BattleField_Pass.mtl
g default
v -0.183811 -0.153656 0.291757
v 0.189008 -0.153656 0.291757
v -0.183811 0.009719 0.291757
v 0.189008 0.009719 0.291757
v -0.183811 0.009719 0.176530
v 0.189008 0.009719 0.176530
v -0.183811 -0.153656 0.176530
v 0.189008 -0.153656 0.176530
v 0.002599 -0.153656 0.185690
v 0.002599 -0.153656 0.066459
v 0.002599 0.009719 0.066459
v 0.002599 0.009719 0.185690
v -0.401808 -0.566709 0.349474
v 0.408192 -0.566709 0.349474
v -0.401808 0.006377 0.349474
v 0.408192 0.006377 0.349474
v -0.401808 0.006377 -0.340527
v 0.408192 0.006377 -0.340527
v -0.401808 -0.566709 -0.340527
v 0.408192 -0.566709 -0.340527
v -0.183811 -0.153656 -0.077146
v 0.189008 -0.153656 -0.077146
v -0.183811 0.009719 -0.077146
v 0.189008 0.009719 -0.077146
v -0.183811 0.009719 -0.192374
v 0.189008 0.009719 -0.192374
v -0.183811 -0.153656 -0.192374
v 0.189008 -0.153656 -0.192374
v 0.002599 -0.153656 -0.183214
v 0.002599 -0.153656 -0.302444
v 0.002599 0.009719 -0.302444
v 0.002599 0.009719 -0.183214
v -0.183811 -0.153656 0.102252
v 0.189008 -0.153656 0.102252
v -0.183811 0.009719 0.102252
v 0.189008 0.009719 0.102252
v -0.183811 0.009719 -0.012976
v 0.189008 0.009719 -0.012976
v -0.183811 -0.153656 -0.012976
v 0.189008 -0.153656 -0.012976
v 0.002599 -0.153656 -0.003816
v 0.002599 -0.153656 -0.123046
v 0.002599 0.009719 -0.123046
v 0.002599 0.009719 -0.003816
vt 0.091772 0.450038
vt 0.053680 0.450038
vt 0.019793 0.390483
vt 0.056606 0.390483
vt 0.019793 0.509592
vt 0.056606 0.509592
vt 0.057572 0.587810
vt 0.019480 0.587810
vt 0.054646 0.528255
vt 0.091459 0.528255
vt 0.054646 0.647364
vt 0.091459 0.647364
vt 0.474403 0.649265
vt 0.474403 0.390483
vt 0.694847 0.390483
vt 0.694847 0.649265
vt 0.233293 0.649265
vt 0.233293 0.390483
vt 0.453736 0.390483
vt 0.453736 0.649265
vt 0.306700 0.727482
vt 0.268608 0.727482
vt 0.234721 0.667927
vt 0.271535 0.667927
vt 0.234721 0.787036
vt 0.271535 0.787036
vt 0.365762 0.727482
vt 0.327670 0.727482
vt 0.362835 0.667927
vt 0.399649 0.667927
vt 0.362835 0.787036
vt 0.399649 0.787036
vt 0.614707 0.727482
vt 0.576615 0.727482
vt 0.542729 0.667927
vt 0.579542 0.667927
vt 0.542729 0.787036
vt 0.579542 0.787036
vt 0.673770 0.820132
vt 0.635678 0.820132
vt 0.670843 0.760577
vt 0.707656 0.760577
vt 0.670843 0.879687
vt 0.707656 0.879687
vt 0.728626 0.760577
vt 0.765440 0.760577
vt 0.765440 0.860763
vt 0.728626 0.860763
vt 0.800605 0.760577
vt 0.800605 0.860763
vt 0.765440 0.860763
vt 0.765440 0.760577
vt 0.728626 0.760577
vt 0.728626 0.860763
vt 0.581002 0.020389
vt 0.801445 0.020389
vt 0.801445 0.371821
vt 0.581002 0.371821
vt 0.715514 0.390483
vt 0.935958 0.390483
vt 0.935958 0.741915
vt 0.715514 0.741915
vt 0.821576 0.760577
vt 0.858389 0.760577
vt 0.858389 0.860763
vt 0.821576 0.860763
vt 0.893554 0.760577
vt 0.893554 0.860763
vt 0.858389 0.860763
vt 0.858389 0.760577
vt 0.821576 0.760577
vt 0.821576 0.860763
vt 0.863979 0.879426
vt 0.900792 0.879426
vt 0.900792 0.979611
vt 0.863979 0.979611
vt 0.935958 0.879426
vt 0.935958 0.979611
vt 0.900792 0.979611
vt 0.900792 0.879426
vt 0.863979 0.879426
vt 0.863979 0.979611
vt 0.212625 0.450038
vt 0.112440 0.450038
vt 0.112440 0.390483
vt 0.212625 0.390483
vt 0.112440 0.509593
vt 0.212625 0.509593
vt 0.019480 0.020389
vt 0.278262 0.020389
vt 0.278262 0.371821
vt 0.019480 0.371821
vt 0.559114 0.371821
vt 0.300332 0.371821
vt 0.300332 0.020389
vt 0.559114 0.020389
vt 0.212797 0.587810
vt 0.112612 0.587810
vt 0.112612 0.528255
vt 0.212797 0.528255
vt 0.112612 0.647365
vt 0.212797 0.647365
vt 0.520805 0.727482
vt 0.420619 0.727482
vt 0.420619 0.667927
vt 0.520805 0.667927
vt 0.420619 0.787037
vt 0.520805 0.787037
vn 0.000000 0.000000 1.000000
vn 0.000000 0.000000 1.000000
vn -0.494549 0.000000 0.869150
vn -0.494549 0.000000 0.869150
vn 0.000000 1.000000 0.000000
vn 0.000000 1.000000 0.000000
vn 0.000000 1.000000 0.000000
vn 0.000000 1.000000 0.000000
vn 0.000000 0.000000 -1.000000
vn 0.000000 0.000000 -1.000000
vn 0.508451 0.000000 -0.861091
vn 0.508451 0.000000 -0.861091
vn 0.000000 -1.000000 0.000000
vn 0.000000 -1.000000 0.000000
vn 0.000000 -1.000000 0.000000
vn 0.000000 -1.000000 0.000000
vn 1.000000 0.000000 0.000000
vn 1.000000 0.000000 0.000000
vn 1.000000 0.000000 0.000000
vn 1.000000 0.000000 0.000000
vn -1.000000 0.000000 0.000000
vn -1.000000 0.000000 0.000000
vn -1.000000 0.000000 0.000000
vn -1.000000 0.000000 0.000000
vn 0.000000 -1.000000 0.000000
vn 0.000000 -1.000000 0.000000
vn -0.508451 0.000000 -0.861091
vn -0.508451 0.000000 -0.861091
vn 0.000000 1.000000 0.000000
vn 0.000000 1.000000 0.000000
vn 0.494549 0.000000 0.869150
vn 0.494549 0.000000 0.869150
vn 0.000000 0.000000 1.000000
vn 0.000000 0.000000 1.000000
vn 0.000000 0.000000 1.000000
vn 0.000000 0.000000 1.000000
vn 0.000000 1.000000 0.000000
vn 0.000000 1.000000 0.000000
vn 0.000000 1.000000 0.000000
vn 0.000000 1.000000 0.000000
vn 0.000000 0.000000 -1.000000
vn 0.000000 0.000000 -1.000000
vn 0.000000 0.000000 -1.000000
vn 0.000000 0.000000 -1.000000
vn 0.000000 -1.000000 0.000000
vn 0.000000 -1.000000 0.000000
vn 0.000000 -1.000000 0.000000
vn 0.000000 -1.000000 0.000000
vn 1.000000 0.000000 0.000000
vn 1.000000 0.000000 0.000000
vn 1.000000 0.000000 0.000000
vn 1.000000 0.000000 0.000000
vn -1.000000 0.000000 0.000000
vn -1.000000 0.000000 0.000000
vn -1.000000 0.000000 0.000000
vn -1.000000 0.000000 0.000000
vn 0.000000 0.000000 1.000000
vn 0.000000 0.000000 1.000000
vn -0.494549 0.000000 0.869150
vn -0.494549 0.000000 0.869150
vn 0.000000 1.000000 0.000000
vn 0.000000 1.000000 0.000000
vn 0.000000 1.000000 0.000000
vn 0.000000 1.000000 0.000000
vn 0.000000 0.000000 -1.000000
vn 0.000000 0.000000 -1.000000
vn 0.508454 0.000000 -0.861090
vn 0.508454 0.000000 -0.861090
vn 0.000000 -1.000000 0.000000
vn 0.000000 -1.000000 0.000000
vn 0.000000 -1.000000 0.000000
vn 0.000000 -1.000000 0.000000
vn 1.000000 0.000000 0.000000
vn 1.000000 0.000000 0.000000
vn 1.000000 0.000000 0.000000
vn 1.000000 0.000000 0.000000
vn -1.000000 0.000000 0.000000
vn -1.000000 0.000000 0.000000
vn -1.000000 0.000000 0.000000
vn -1.000000 0.000000 0.000000
vn 0.000000 -1.000000 0.000000
vn 0.000000 -1.000000 0.000000
vn -0.508454 0.000000 -0.861090
vn -0.508454 0.000000 -0.861090
vn 0.000000 1.000000 0.000000
vn 0.000000 1.000000 0.000000
vn 0.494549 0.000000 0.869150
vn 0.494549 0.000000 0.869150
vn 0.000000 0.000000 1.000000
vn 0.000000 0.000000 1.000000
vn -0.494549 0.000000 0.869150
vn -0.494549 0.000000 0.869150
vn 0.000000 1.000000 0.000000
vn 0.000000 1.000000 0.000000
vn 0.000000 1.000000 0.000000
vn 0.000000 1.000000 0.000000
vn 0.000000 0.000000 -1.000000
vn 0.000000 0.000000 -1.000000
vn 0.508451 0.000000 -0.861091
vn 0.508451 0.000000 -0.861091
vn 0.000000 -1.000000 0.000000
vn 0.000000 -1.000000 0.000000
vn 0.000000 -1.000000 0.000000
vn 0.000000 -1.000000 0.000000
vn 1.000000 0.000000 0.000000
vn 1.000000 0.000000 0.000000
vn 1.000000 0.000000 0.000000
vn 1.000000 0.000000 0.000000
vn -1.000000 0.000000 0.000000
vn -1.000000 0.000000 0.000000
vn -1.000000 0.000000 0.000000
vn -1.000000 0.000000 0.000000
vn 0.000000 -1.000000 0.000000
vn 0.000000 -1.000000 0.000000
vn -0.508451 0.000000 -0.861091
vn -0.508451 0.000000 -0.861091
vn 0.000000 1.000000 0.000000
vn 0.000000 1.000000 0.000000
vn 0.494549 0.000000 0.869150
vn 0.494549 0.000000 0.869150
s 1
g pCube67
usemtl initialShadingGroup
f 12/83/1 9/84/2 2/85/3 4/86/4
s 2
f 11/1/5 12/2/6 4/3/7 6/4/8
s 3
f 10/49/9 11/50/10 6/47/11 8/46/12
s 4
f 9/7/13 10/8/14 8/9/15 2/10/16
s off
f 2/45/17 8/46/18 6/47/19 4/48/20
f 7/52/21 1/53/22 3/54/23 5/51/24
s 4
f 7/11/25 10/8/14 9/7/13 1/12/26
s 3
f 5/51/27 11/50/10 10/49/9 7/52/28
s 2
f 3/5/29 12/2/6 11/1/5 5/6/30
s 1
f 1/87/31 9/84/2 12/83/1 3/88/32
s off
f 13/89/33 14/90/34 16/91/35 15/92/36
f 15/13/37 16/14/38 18/15/39 17/16/40
f 17/93/41 18/94/42 20/95/43 19/96/44
f 19/17/45 20/18/46 14/19/47 13/20/48
f 14/55/49 20/56/50 18/57/51 16/58/52
f 19/59/53 13/60/54 15/61/55 17/62/56
s 5
f 32/97/57 29/98/58 22/99/59 24/100/60
s 6
f 31/21/61 32/22/62 24/23/63 26/24/64
s 7
f 30/67/65 31/68/66 26/65/67 28/64/68
s 8
f 29/27/69 30/28/70 28/29/71 22/30/72
s off
f 22/63/73 28/64/74 26/65/75 24/66/76
f 27/70/77 21/71/78 23/72/79 25/69/80
s 8
f 27/31/81 30/28/70 29/27/69 21/32/82
s 7
f 25/69/83 31/68/66 30/67/65 27/70/84
s 6
f 23/25/85 32/22/62 31/21/61 25/26/86
s 5
f 21/101/87 29/98/58 32/97/57 23/102/88
s 9
f 44/103/89 41/104/90 34/105/91 36/106/92
s 10
f 43/33/93 44/34/94 36/35/95 38/36/96
s 11
f 42/77/97 43/78/98 38/75/99 40/74/100
s 12
f 41/39/101 42/40/102 40/41/103 34/42/104
s off
f 34/73/105 40/74/106 38/75/107 36/76/108
f 39/80/109 33/81/110 35/82/111 37/79/112
s 12
f 39/43/113 42/40/102 41/39/101 33/44/114
s 11
f 37/79/115 43/78/98 42/77/97 39/80/116
s 10
f 35/37/117 44/34/94 43/33/93 37/38/118
s 9
f 33/107/119 41/104/90 44/103/89 35/108/120
