# This file uses centimeters as units for non-parametric coordinates.

mtllib RM2018_BattleField_Bunker 1.mtl
g default
v 1.251181 -0.002466 -0.722370
v 0.722370 -0.002466 -1.251181
v 0.000000 -0.002466 -1.444739
v -0.722370 -0.002466 -1.251181
v -1.251181 -0.002466 -0.722370
v -1.444739 -0.002466 0.000000
v -1.251181 -0.002466 0.722370
v -0.722370 -0.002466 1.251181
v 0.000000 -0.002466 1.444739
v 0.722370 -0.002466 1.251181
v 1.251181 -0.002466 0.722370
v 1.444739 -0.002466 0.000000
v 0.833570 0.133174 -0.481261
v 0.481261 0.133174 -0.833570
v 0.000000 0.133174 -0.962523
v -0.481261 0.133174 -0.833570
v -0.833570 0.133174 -0.481261
v -0.962523 0.133174 0.000000
v -0.833570 0.133174 0.481261
v -0.481261 0.133174 0.833570
v 0.000000 0.133174 0.962523
v 0.481261 0.133174 0.833570
v 0.833570 0.133174 0.481261
v 0.962523 0.133174 0.000000
v 0.750051 0.133174 -0.433042
v 0.433042 0.133174 -0.750051
v 0.000000 0.133174 0.000000
v 0.000000 0.133174 -0.866083
v -0.433042 0.133174 -0.750051
v -0.750051 0.133174 -0.433042
v -0.866083 0.133174 0.000000
v -0.750051 0.133174 0.433042
v -0.433042 0.133174 0.750051
v 0.000000 0.133174 0.866083
v 0.433042 0.133174 0.750051
v 0.750051 0.133174 0.433042
v 0.866083 0.133174 0.000000
v 0.833570 0.239671 -0.481261
v 0.481261 0.239671 -0.833570
v 0.433042 0.239671 -0.750051
v 0.750051 0.239671 -0.433042
v 0.000000 0.239671 -0.962523
v 0.000000 0.239671 -0.866083
v 0.833570 0.239671 0.481261
v 0.962523 0.239671 -0.000000
v 0.866083 0.239671 -0.000000
v 0.750051 0.239671 0.433042
v -0.833570 0.239671 -0.481261
v -0.962523 0.239671 -0.000000
v -0.866083 0.239671 -0.000000
v -0.750051 0.239671 -0.433042
v -0.833570 0.239671 0.481261
v -0.750051 0.239671 0.433042
v -0.481261 0.239671 0.833570
v -0.433042 0.239671 0.750051
v 0.000000 0.239671 0.962523
v 0.000000 0.239671 0.866083
v -0.833570 0.202209 -0.481261
v -0.962523 0.202209 -0.000000
v -0.833570 0.202209 0.481261
v -0.481261 0.202209 0.833570
v 0.000000 0.202209 0.962523
v 0.000000 0.202209 0.866083
v -0.433042 0.202209 0.750051
v -0.750051 0.202209 0.433042
v -0.866083 0.202209 -0.000000
v -0.750051 0.202209 -0.433042
v -0.817934 0.182513 -0.472234
v -0.944467 0.182513 -0.000000
v -0.817934 0.182513 0.472234
v -0.472234 0.182513 0.817934
v 0.000000 0.182513 0.944467
v 0.000000 0.182416 0.890631
v -0.445315 0.182416 0.771310
v -0.771310 0.182416 0.445315
v -0.890631 0.182416 -0.000000
v -0.771310 0.182416 -0.445315
v -0.833570 0.160745 -0.481261
v -0.962523 0.160745 -0.000000
v -0.833570 0.160745 0.481261
v -0.481261 0.160745 0.833570
v 0.000000 0.160745 0.962523
v 0.000000 0.160745 0.866083
v -0.433042 0.160745 0.750051
v -0.750051 0.160745 0.433042
v -0.866083 0.160745 -0.000000
v -0.750051 0.160745 -0.433042
v 0.833570 0.210837 -0.481261
v 0.481261 0.210837 -0.833570
v 0.000000 0.210837 -0.962523
v 0.000000 0.210837 -0.866083
v 0.433042 0.210837 -0.750051
v 0.750051 0.210837 -0.433042
v 0.866083 0.210837 -0.000000
v 0.750051 0.210837 0.433042
v 0.833570 0.210837 0.481261
v 0.962523 0.210837 -0.000000
v 0.817934 0.186567 -0.472234
v 0.472234 0.186567 -0.817934
v 0.000000 0.186567 -0.944467
v 0.000000 0.186665 -0.890631
v 0.445315 0.186665 -0.771310
v 0.771310 0.186665 -0.445315
v 0.890631 0.186665 -0.000000
v 0.771310 0.186665 0.445315
v 0.817934 0.186567 0.472234
v 0.944467 0.186567 -0.000000
v 0.833570 0.168713 -0.481261
v 0.481261 0.168713 -0.833570
v 0.000000 0.168713 -0.962523
v 0.000000 0.168713 -0.866083
v 0.433042 0.168713 -0.750051
v 0.750051 0.168713 -0.433042
v 0.866083 0.168713 -0.000000
v 0.750051 0.168713 0.433042
v 0.833570 0.168713 0.481261
v 0.962523 0.168713 -0.000000
vt 0.343538 0.009825
vt 0.508137 0.055958
vt 0.451935 0.150777
vt 0.342274 0.120042
vt 0.627618 0.178210
vt 0.531536 0.232224
vt 0.177924 0.052173
vt 0.231939 0.148255
vt 0.669966 0.343823
vt 0.559749 0.342560
vt 0.055673 0.171654
vt 0.150491 0.227856
vt 0.623833 0.508423
vt 0.529014 0.452221
vt 0.537707 0.342307
vt 0.512321 0.243026
vt 0.009540 0.336253
vt 0.119756 0.337517
vt 0.501581 0.627904
vt 0.447567 0.531822
vt 0.510051 0.440980
vt 0.339753 0.340038
vt 0.169454 0.239096
vt 0.141799 0.337769
vt 0.051888 0.501867
vt 0.147970 0.447853
vt 0.335968 0.670251
vt 0.337231 0.560035
vt 0.440695 0.169740
vt 0.167185 0.437050
vt 0.171368 0.624118
vt 0.227571 0.529300
vt 0.436765 0.512606
vt 0.342022 0.142084
vt 0.242741 0.167471
vt 0.337484 0.537992
vt 0.238811 0.510337
vt 0.883565 0.229815
vt 0.803036 0.310344
vt 0.792014 0.291254
vt 0.864475 0.218793
vt 0.693030 0.339820
vt 0.693030 0.317776
vt 0.913041 0.119809
vt 0.890997 0.119809
vt 0.883565 0.009804
vt 0.864475 0.020826
vt 0.770827 0.689219
vt 0.741351 0.579214
vt 0.763395 0.579214
vt 0.789917 0.678197
vt 0.770827 0.469208
vt 0.789917 0.480230
vt 0.851357 0.388678
vt 0.862379 0.407769
vt 0.961362 0.359203
vt 0.961362 0.381247
vt 0.247917 0.715016
vt 0.269961 0.715016
vt 0.269961 0.724431
vt 0.247917 0.724431
vt 0.252045 0.707091
vt 0.264350 0.707123
vt 0.247917 0.701261
vt 0.269961 0.701261
vt 0.247917 0.689656
vt 0.269961 0.689656
vt 0.710470 0.990196
vt 0.710470 0.880191
vt 0.719886 0.880191
vt 0.719886 0.990196
vt 0.702546 0.988133
vt 0.702546 0.880191
vt 0.710470 0.770185
vt 0.719886 0.770185
vt 0.696716 0.990196
vt 0.696716 0.880191
vt 0.702546 0.772249
vt 0.710470 0.689656
vt 0.719886 0.689656
vt 0.685111 0.990196
vt 0.685111 0.880191
vt 0.696716 0.770185
vt 0.702546 0.693230
vt 0.685111 0.770185
vt 0.696716 0.689656
vt 0.685111 0.689656
vt 0.582045 0.865959
vt 0.582045 0.964943
vt 0.572629 0.964943
vt 0.572629 0.865959
vt 0.589938 0.865959
vt 0.589938 0.967748
vt 0.582045 0.766976
vt 0.572629 0.766976
vt 0.595800 0.865959
vt 0.595800 0.964943
vt 0.589938 0.764170
vt 0.582045 0.694515
vt 0.572629 0.694515
vt 0.607405 0.865959
vt 0.607405 0.964943
vt 0.595800 0.766976
vt 0.589938 0.689656
vt 0.607405 0.766976
vt 0.595800 0.694515
vt 0.607405 0.694515
vt 0.641103 0.689656
vt 0.641103 0.799661
vt 0.628870 0.799661
vt 0.628870 0.689656
vt 0.647535 0.691719
vt 0.647535 0.799661
vt 0.641103 0.909666
vt 0.628870 0.909666
vt 0.654642 0.689656
vt 0.654642 0.799661
vt 0.647535 0.907603
vt 0.641103 0.990196
vt 0.628870 0.990196
vt 0.663646 0.689656
vt 0.663646 0.799661
vt 0.654642 0.909666
vt 0.647535 0.986622
vt 0.663646 0.909666
vt 0.654642 0.990196
vt 0.663646 0.990196
vt 0.538932 0.791445
vt 0.538932 0.692461
vt 0.551165 0.692461
vt 0.551165 0.791445
vt 0.532468 0.791445
vt 0.532468 0.689656
vt 0.538932 0.890428
vt 0.551165 0.890428
vt 0.525392 0.791445
vt 0.525392 0.692461
vt 0.532468 0.893234
vt 0.538932 0.962889
vt 0.551165 0.962889
vt 0.516389 0.791445
vt 0.516389 0.692461
vt 0.525392 0.890428
vt 0.532468 0.967748
vt 0.516389 0.890428
vt 0.525392 0.962889
vt 0.516389 0.962889
vt 0.123297 0.712198
vt 0.145341 0.712198
vt 0.145341 0.724431
vt 0.123297 0.724431
vt 0.127424 0.705767
vt 0.139730 0.705735
vt 0.123297 0.698659
vt 0.145341 0.698659
vt 0.123297 0.689656
vt 0.145341 0.689656
vt 0.469564 0.689656
vt 0.469564 0.799661
vt 0.460148 0.799661
vt 0.460148 0.689656
vt 0.477489 0.691719
vt 0.477489 0.799661
vt 0.483319 0.689656
vt 0.483319 0.799661
vt 0.494924 0.689656
vt 0.494924 0.799661
vt 0.373027 0.791445
vt 0.373027 0.692461
vt 0.382443 0.692461
vt 0.382443 0.791445
vt 0.365134 0.791445
vt 0.365134 0.689656
vt 0.359272 0.791445
vt 0.359272 0.692461
vt 0.347667 0.791445
vt 0.347667 0.692461
vt 0.207362 0.715016
vt 0.226452 0.715016
vt 0.226452 0.724431
vt 0.207362 0.724431
vt 0.212221 0.707123
vt 0.222878 0.707091
vt 0.207362 0.701261
vt 0.226452 0.701261
vt 0.207362 0.689656
vt 0.226452 0.689656
vt 0.166806 0.712198
vt 0.185897 0.712198
vt 0.185897 0.724431
vt 0.166806 0.724431
vt 0.171665 0.705735
vt 0.182323 0.705767
vt 0.166806 0.698659
vt 0.185897 0.698659
vt 0.166806 0.689656
vt 0.185897 0.689656
vt 0.426450 0.799661
vt 0.426450 0.689656
vt 0.438683 0.689656
vt 0.438683 0.799661
vt 0.420019 0.797598
vt 0.420019 0.689656
vt 0.412911 0.799661
vt 0.412911 0.689656
vt 0.403908 0.799661
vt 0.403908 0.689656
vt 0.303659 0.689656
vt 0.303659 0.788639
vt 0.291426 0.788639
vt 0.291426 0.689656
vt 0.310122 0.689656
vt 0.310122 0.791445
vt 0.317199 0.689656
vt 0.317199 0.788639
vt 0.326202 0.689656
vt 0.326202 0.788639
vn 0.234499 0.962642 -0.135388
vn 0.135388 0.962642 -0.234499
vn 0.135388 0.962642 -0.234499
vn 0.234499 0.962642 -0.135388
vn 0.000000 0.962642 -0.270776
vn 0.000000 0.962642 -0.270776
vn -0.135388 0.962642 -0.234499
vn -0.135388 0.962642 -0.234499
vn -0.234499 0.962642 -0.135388
vn -0.234499 0.962642 -0.135388
vn -0.270776 0.962642 0.000000
vn -0.270776 0.962642 -0.000000
vn -0.234499 0.962642 0.135388
vn -0.234499 0.962642 0.135388
vn -0.135388 0.962642 0.234499
vn -0.135388 0.962642 0.234499
vn 0.000000 0.962642 0.270776
vn 0.000000 0.962642 0.270776
vn 0.135388 0.962642 0.234499
vn 0.135388 0.962642 0.234499
vn 0.234499 0.962642 0.135388
vn 0.234499 0.962642 0.135388
vn 0.270776 0.962642 0.000000
vn 0.270776 0.962642 0.000000
vn 0.000000 1.000000 -0.000000
vn 0.000000 1.000000 0.000000
vn 0.000000 1.000000 0.000000
vn 0.000000 1.000000 0.000000
vn 0.000000 1.000000 0.000000
vn 0.000000 1.000000 0.000000
vn 0.000000 1.000000 0.000000
vn 0.000000 1.000000 0.000000
vn 0.000000 1.000000 0.000000
vn 0.000000 1.000000 0.000000
vn 0.000000 1.000000 -0.000000
vn 0.000000 1.000000 -0.000000
vn 0.000000 1.000000 -0.000000
vn 0.000000 1.000000 0.000000
vn 0.000000 1.000000 0.000000
vn 0.000000 1.000000 0.000000
vn 0.000000 1.000000 0.000000
vn 0.000000 1.000000 0.000000
vn 0.000000 1.000000 0.000000
vn 0.000000 1.000000 0.000000
vn 0.000000 1.000000 0.000000
vn 0.000000 1.000000 0.000000
vn 0.000000 1.000000 0.000000
vn 0.000000 1.000000 0.000000
vn 0.000000 1.000000 0.000000
vn 0.000000 1.000000 -0.000000
vn 0.000000 1.000000 -0.000000
vn 0.000000 1.000000 -0.000000
vn 0.000000 1.000000 -0.000000
vn 0.000000 1.000000 0.000000
vn 0.000000 1.000000 0.000000
vn 0.000000 1.000000 0.000000
vn 0.000000 1.000000 0.000000
vn 0.000000 1.000000 -0.000000
vn 0.000000 1.000000 -0.000000
vn 0.000000 1.000000 -0.000000
vn 0.000000 1.000000 -0.000000
vn 0.000000 1.000000 -0.000000
vn 0.000000 1.000000 -0.000000
vn 0.000000 1.000000 -0.000000
vn 0.000000 1.000000 -0.000000
vn 0.000000 1.000000 0.000000
vn 0.000000 1.000000 0.000000
vn 0.000000 1.000000 0.000000
vn 0.000000 1.000000 0.000000
vn 0.000000 1.000000 0.000000
vn 0.000000 1.000000 0.000000
vn 0.000000 1.000000 0.000000
vn 0.000000 1.000000 0.000000
vn 0.000000 1.000000 0.000000
vn 0.000000 1.000000 0.000000
vn 0.000000 1.000000 0.000000
vn 0.000000 1.000000 0.000000
vn 0.000000 1.000000 0.000000
vn 0.000000 1.000000 0.000000
vn 0.000000 1.000000 0.000000
vn 0.000000 1.000000 0.000000
vn 0.000000 1.000000 0.000000
vn 0.000000 1.000000 0.000000
vn 0.000000 1.000000 0.000000
vn 0.000000 1.000000 0.000000
vn 0.674890 -0.298406 -0.674890
vn 0.674890 -0.298406 -0.674890
vn 0.707107 0.000000 -0.707107
vn 0.707107 0.000000 -0.707107
vn -0.639182 -0.427659 0.639182
vn -0.639182 -0.427659 0.639182
vn -0.707107 0.000000 0.707107
vn -0.707107 0.000000 0.707107
vn 0.247025 -0.298406 -0.921918
vn 0.247025 -0.298406 -0.921918
vn 0.258817 0.000000 -0.965926
vn 0.258817 0.000000 -0.965926
vn -1.000000 0.000000 0.000000
vn -1.000000 0.000000 0.000000
vn -1.000000 0.000000 0.000000
vn -1.000000 0.000000 0.000000
vn -0.233955 -0.427659 0.873139
vn -0.233955 -0.427660 0.873139
vn -0.258817 0.000000 0.965926
vn -0.258817 0.000000 0.965926
vn 0.921918 -0.298406 0.247025
vn 0.921918 -0.298406 0.247025
vn 0.965926 0.000000 0.258817
vn 0.965926 0.000000 0.258817
vn -0.873139 -0.427659 -0.233955
vn -0.873139 -0.427660 -0.233955
vn -0.965926 -0.000000 -0.258817
vn -0.965926 -0.000000 -0.258817
vn -0.499999 -0.000001 0.866026
vn -0.499999 -0.000001 0.866026
vn -0.500000 0.000000 0.866026
vn -0.500000 0.000000 0.866026
vn 0.921918 -0.298406 -0.247025
vn 0.921918 -0.298406 -0.247025
vn 0.965926 -0.000000 -0.258817
vn 0.965926 -0.000000 -0.258817
vn -0.873139 -0.427660 0.233955
vn -0.873139 -0.427659 0.233955
vn -0.965926 0.000000 0.258817
vn -0.965926 0.000000 0.258817
vn -0.928968 -0.273972 -0.248914
vn -0.928968 -0.273972 -0.248914
vn -0.965926 0.000000 -0.258817
vn -0.965926 0.000000 -0.258817
vn 0.882032 -0.407631 0.236338
vn 0.882032 -0.407631 0.236338
vn 0.965926 0.000000 0.258817
vn 0.965926 0.000000 0.258817
vn 0.500000 -0.000000 -0.866026
vn 0.500000 -0.000001 -0.866026
vn 0.500000 0.000000 -0.866026
vn 0.500000 0.000000 -0.866026
vn -0.928968 -0.273972 0.248914
vn -0.928968 -0.273971 0.248914
vn -0.965926 0.000000 0.258817
vn -0.965926 0.000000 0.258817
vn 0.882032 -0.407631 -0.236338
vn 0.882032 -0.407631 -0.236338
vn 0.965926 0.000000 -0.258817
vn 0.965926 0.000000 -0.258817
vn -0.680051 -0.273972 0.680051
vn -0.680051 -0.273972 0.680051
vn -0.707107 0.000000 0.707107
vn -0.707107 0.000000 0.707107
vn 0.645692 -0.407631 -0.645692
vn 0.645692 -0.407631 -0.645692
vn 0.707107 0.000000 -0.707107
vn 0.707107 0.000000 -0.707107
vn -0.248914 -0.273972 0.928968
vn -0.248914 -0.273972 0.928968
vn -0.258817 0.000000 0.965926
vn -0.258817 0.000000 0.965926
vn 1.000000 0.000000 0.000000
vn 1.000000 0.000000 0.000000
vn 1.000000 0.000000 0.000000
vn 1.000000 0.000000 0.000000
vn 0.236338 -0.407631 -0.882033
vn 0.236338 -0.407631 -0.882032
vn 0.258817 0.000000 -0.965926
vn 0.258817 0.000000 -0.965926
vn -0.965923 -0.002444 -0.258816
vn -0.965923 -0.002444 -0.258816
vn -0.965923 -0.002444 0.258816
vn -0.965923 -0.002444 0.258816
vn -0.707105 -0.002444 0.707105
vn -0.707105 -0.002444 0.707105
vn -0.258816 -0.002444 0.965923
vn -0.258816 -0.002444 0.965923
vn 1.000000 0.000000 0.000000
vn 1.000000 0.000000 0.000000
vn 0.258816 0.003658 -0.965920
vn 0.258816 0.003658 -0.965920
vn 0.707102 0.003658 -0.707102
vn 0.707102 0.003658 -0.707102
vn 0.965920 0.003658 -0.258815
vn 0.965920 0.003658 -0.258815
vn 0.965920 0.003658 0.258815
vn 0.965920 0.003658 0.258815
vn 0.499999 -0.000000 -0.866026
vn 0.499999 -0.000000 -0.866026
vn -0.916003 0.317328 -0.245440
vn -0.916003 0.317328 -0.245440
vn -0.916003 0.317328 0.245440
vn -0.916003 0.317328 0.245440
vn -0.670561 0.317328 0.670561
vn -0.670561 0.317328 0.670561
vn -0.245441 0.317328 0.916003
vn -0.245441 0.317328 0.916003
vn 1.000000 -0.000000 0.000000
vn 1.000000 -0.000000 0.000000
vn 0.230389 0.455649 -0.859829
vn 0.230389 0.455649 -0.859829
vn 0.629438 0.455648 -0.629438
vn 0.629438 0.455648 -0.629438
vn 0.859828 0.455649 -0.230389
vn 0.859829 0.455649 -0.230389
vn 0.859829 0.455649 0.230389
vn 0.859828 0.455649 0.230389
vn 0.500000 0.000001 -0.866026
vn 0.500000 0.000001 -0.866026
vn -0.965926 0.000000 -0.258817
vn -0.965926 0.000000 -0.258817
vn -0.965926 0.000000 0.258817
vn -0.965926 0.000000 0.258817
vn -0.707107 0.000000 0.707107
vn -0.707107 0.000000 0.707107
vn -0.258817 0.000000 0.965926
vn -0.258817 0.000000 0.965926
vn 1.000000 0.000000 0.000000
vn 1.000000 0.000000 0.000000
vn 0.258817 0.000000 -0.965926
vn 0.258817 0.000000 -0.965926
vn 0.707107 0.000000 -0.707107
vn 0.707107 0.000000 -0.707107
vn 0.965926 0.000000 -0.258817
vn 0.965926 0.000000 -0.258817
vn 0.965926 0.000000 0.258817
vn 0.965926 0.000000 0.258817
vn 0.500000 0.000000 -0.866026
vn 0.500000 0.000000 -0.866026
vn 0.707088 0.007357 -0.707088
vn 0.707088 0.007357 -0.707088
vn 0.258810 0.007357 -0.965900
vn 0.258810 0.007357 -0.965900
vn -1.000000 0.000000 0.000000
vn -1.000000 0.000000 0.000000
vn -0.258799 -0.011760 0.965859
vn -0.258799 -0.011760 0.965859
vn -0.707058 -0.011760 0.707058
vn -0.707058 -0.011760 0.707058
vn -0.965860 -0.011760 0.258799
vn -0.965860 -0.011760 0.258799
vn -0.965860 -0.011760 -0.258799
vn -0.965859 -0.011760 -0.258799
vn -0.499999 0.000000 0.866026
vn -0.499999 0.000000 0.866026
vn 0.965900 0.007357 0.258810
vn 0.965900 0.007357 0.258810
vn 0.965900 0.007357 -0.258810
vn 0.965900 0.007357 -0.258810
vn 0.676687 0.290152 -0.676687
vn 0.676687 0.290152 -0.676687
vn 0.247683 0.290152 -0.924373
vn 0.247683 0.290152 -0.924373
vn -1.000000 0.000000 0.000000
vn -1.000000 0.000000 0.000000
vn -0.233325 0.432767 0.870788
vn -0.233325 0.432767 0.870788
vn -0.637461 0.432767 0.637461
vn -0.637461 0.432767 0.637461
vn -0.870788 0.432767 0.233325
vn -0.870788 0.432767 0.233325
vn -0.870788 0.432767 -0.233325
vn -0.870788 0.432767 -0.233325
vn -0.499999 0.000000 0.866026
vn -0.499999 0.000001 0.866026
vn 0.924373 0.290152 0.247683
vn 0.924373 0.290152 0.247683
vn 0.924373 0.290152 -0.247683
vn 0.924373 0.290152 -0.247683
vn 0.707107 0.000000 -0.707107
vn 0.707107 0.000000 -0.707107
vn 0.258817 0.000000 -0.965926
vn 0.258817 0.000000 -0.965926
vn -1.000000 0.000000 0.000000
vn -1.000000 0.000000 0.000000
vn -0.258817 0.000000 0.965926
vn -0.258817 0.000000 0.965926
vn -0.707107 0.000000 0.707107
vn -0.707107 0.000000 0.707107
vn -0.965926 0.000000 0.258817
vn -0.965926 0.000000 0.258817
vn -0.965926 -0.000000 -0.258817
vn -0.965926 -0.000000 -0.258817
vn -0.499999 0.000000 0.866026
vn -0.499999 0.000000 0.866026
vn 0.965926 0.000000 0.258817
vn 0.965926 0.000000 0.258817
vn 0.965926 -0.000000 -0.258817
vn 0.965926 -0.000000 -0.258817
s 1
g pCylinder3
usemtl initialShadingGroup
f 1/1/1 2/2/2 14/3/3 13/4/4
f 2/2/2 3/5/5 15/6/6 14/3/3
f 3/5/5 4/9/7 16/10/8 15/6/6
f 4/9/7 5/13/9 17/14/10 16/10/8
f 5/13/9 6/19/11 18/20/12 17/14/10
f 6/19/11 7/27/13 19/28/14 18/20/12
f 7/27/13 8/31/15 20/32/16 19/28/14
f 8/31/15 9/25/17 21/26/18 20/32/16
f 9/25/17 10/17/19 22/18/20 21/26/18
f 10/17/19 11/11/21 23/12/22 22/18/20
f 11/11/21 12/7/23 24/8/24 23/12/22
f 12/7/23 1/1/1 13/4/4 24/8/24
s 2
f 25/34/25 26/29/26 27/22/27
f 26/29/26 28/16/28 27/22/27
f 28/16/28 29/15/29 27/22/27
f 29/15/29 30/21/30 27/22/27
f 30/21/30 31/33/31 27/22/27
f 31/33/31 32/36/32 27/22/27
f 32/36/32 33/37/33 27/22/27
f 33/37/33 34/30/34 27/22/27
f 34/30/34 35/24/35 27/22/27
f 35/24/35 36/23/36 27/22/27
f 36/23/36 37/35/37 27/22/27
f 37/35/37 25/34/25 27/22/27
s off
f 38/38/38 39/39/39 40/40/40 41/41/41
f 39/39/42 42/42/43 43/43/44 40/40/45
f 15/6/46 16/10/47 29/15/48 28/16/49
f 16/10/50 17/14/51 30/21/52 29/15/53
f 48/48/54 49/49/55 50/50/56 51/51/57
f 49/49/58 52/52/59 53/53/60 50/50/61
f 52/52/62 54/54/63 55/55/64 53/53/65
f 54/54/66 56/56/67 57/57/68 55/55/69
f 21/26/70 22/18/71 35/24/72 34/30/73
f 22/18/74 23/12/75 36/23/76 35/24/77
f 44/46/78 45/44/79 46/45/80 47/47/81
f 45/44/82 38/38/83 41/41/84 46/45/85
s 3
f 88/74/86 89/79/87 39/80/88 38/75/89
s 4
f 92/99/90 93/94/91 41/95/92 40/100/93
s 5
f 89/158/94 90/159/95 42/160/96 39/161/97
s 6
f 90/58/98 91/59/99 43/60/100 42/61/101
s 7
f 91/168/102 92/169/103 40/170/104 43/171/105
s 8
f 96/68/106 97/69/107 45/70/108 44/71/109
s 9
f 94/88/110 95/89/111 47/90/112 46/91/113
s 10
f 95/178/114 96/179/115 44/180/116 47/181/117
s 11
f 97/69/118 88/74/119 38/75/120 45/70/121
s 12
f 93/94/122 94/88/123 46/91/124 41/95/125
s 13
f 58/108/126 59/109/127 49/110/128 48/111/129
s 14
f 66/128/130 67/129/131 51/130/132 50/131/133
s 15
f 67/188/134 58/189/135 48/190/136 51/191/137
s 16
f 59/109/138 60/114/139 52/115/140 49/110/141
s 17
f 65/134/142 66/128/143 50/131/144 53/135/145
s 18
f 60/114/146 61/119/147 54/120/148 52/115/149
s 19
f 64/139/150 65/134/151 53/135/152 55/140/153
s 20
f 61/198/154 62/199/155 56/200/156 54/201/157
s 21
f 62/148/158 63/149/159 57/150/160 56/151/161
s 22
f 63/208/162 64/209/163 55/210/164 57/211/165
s 13
f 68/112/166 69/113/167 59/109/127 58/108/126
s 16
f 69/113/168 70/118/169 60/114/139 59/109/138
s 18
f 70/118/170 71/124/171 61/119/147 60/114/146
s 20
f 71/202/172 72/203/173 62/199/155 61/198/154
s 21
f 72/152/174 73/153/175 63/149/159 62/148/158
s 22
f 73/212/176 74/213/177 64/209/163 63/208/162
s 19
f 74/144/178 75/138/179 65/134/151 64/139/150
s 17
f 75/138/180 76/132/181 66/128/143 65/134/142
s 14
f 76/132/182 77/133/183 67/129/131 66/128/130
s 15
f 77/192/184 68/193/185 58/189/135 67/188/134
s 13
f 78/116/186 79/117/187 69/113/167 68/112/166
s 16
f 79/117/188 80/123/189 70/118/169 69/113/168
s 18
f 80/123/190 81/126/191 71/124/171 70/118/170
s 20
f 81/204/192 82/205/193 72/203/173 71/202/172
s 21
f 82/154/194 83/155/195 73/153/175 72/152/174
s 22
f 83/214/196 84/215/197 74/213/177 73/212/176
s 19
f 84/146/198 85/143/199 75/138/179 74/144/178
s 17
f 85/143/200 86/136/201 76/132/181 75/138/180
s 14
f 86/136/202 87/137/203 77/133/183 76/132/182
s 15
f 87/194/204 78/195/205 68/193/185 77/192/184
s 13
f 17/121/206 18/122/207 79/117/187 78/116/186
s 16
f 18/122/208 19/125/209 80/123/189 79/117/188
s 18
f 19/125/210 20/127/211 81/126/191 80/123/190
s 20
f 20/206/212 21/207/213 82/205/193 81/204/192
s 21
f 21/156/214 34/157/215 83/155/195 82/154/194
s 22
f 34/216/216 33/217/217 84/215/197 83/214/196
s 19
f 33/147/218 32/145/219 85/143/199 84/146/198
s 17
f 32/145/220 31/141/221 86/136/201 85/143/200
s 14
f 31/141/222 30/142/223 87/137/203 86/136/202
s 15
f 30/196/224 17/197/225 78/195/205 87/194/204
s 3
f 98/78/226 99/84/227 89/79/87 88/74/86
s 5
f 99/162/228 100/163/229 90/159/95 89/158/94
s 6
f 100/62/230 101/63/231 91/59/99 90/58/98
s 7
f 101/172/232 102/173/233 92/169/103 91/168/102
s 4
f 102/104/234 103/98/235 93/94/91 92/99/90
s 12
f 103/98/236 104/92/237 94/88/123 93/94/122
s 9
f 104/92/238 105/93/239 95/89/111 94/88/110
s 10
f 105/182/240 106/183/241 96/179/115 95/178/114
s 8
f 106/72/242 107/73/243 97/69/107 96/68/106
s 11
f 107/73/244 98/78/245 88/74/119 97/69/118
s 3
f 108/83/246 109/86/247 99/84/227 98/78/226
s 5
f 109/164/248 110/165/249 100/163/229 99/162/228
s 6
f 110/64/250 111/65/251 101/63/231 100/62/230
s 7
f 111/174/252 112/175/253 102/173/233 101/172/232
s 4
f 112/106/254 113/103/255 103/98/235 102/104/234
s 12
f 113/103/256 114/96/257 104/92/237 103/98/236
s 9
f 114/96/258 115/97/259 105/93/239 104/92/238
s 10
f 115/184/260 116/185/261 106/183/241 105/182/240
s 8
f 116/76/262 117/77/263 107/73/243 106/72/242
s 11
f 117/77/264 108/83/265 98/78/245 107/73/244
s 3
f 13/85/266 14/87/267 109/86/247 108/83/246
s 5
f 14/166/268 15/167/269 110/165/249 109/164/248
s 6
f 15/66/270 28/67/271 111/65/251 110/64/250
s 7
f 28/176/272 26/177/273 112/175/253 111/174/252
s 4
f 26/107/274 25/105/275 113/103/255 112/106/254
s 12
f 25/105/276 37/101/277 114/96/257 113/103/256
s 9
f 37/101/278 36/102/279 115/97/259 114/96/258
s 10
f 36/186/280 23/187/281 116/185/261 115/184/260
s 8
f 23/81/282 24/82/283 117/77/263 116/76/262
s 11
f 24/82/284 13/85/285 108/83/265 117/77/264
