# This file uses centimeters as units for non-parametric coordinates.

mtllib Drone_Wing.mtl
g default
v -2.621937 -0.023970 0.110539
v 2.645744 -0.021211 -0.070271
v -2.621937 -0.013328 0.110539
v 2.645744 0.020386 -0.070271
v -2.645744 0.020386 0.070271
v 2.621937 -0.013328 -0.110539
v -2.645744 -0.021211 0.070271
v 2.621937 -0.023970 -0.110539
v 0.000000 -0.027016 0.174750
v 0.000000 -0.027016 -0.174750
v 0.000000 0.027016 -0.174750
v 0.000000 0.027016 0.174750
v 0.263376 -0.027016 0.159180
v 0.263376 0.027016 0.159180
v 0.263376 -0.078301 -0.078061
v 0.263376 -0.092125 -0.078061
v -0.263376 -0.092125 0.078061
v -0.263376 -0.027016 -0.159180
v -0.263376 0.027016 -0.159180
v -0.263376 -0.078301 0.078061
v 0.496949 -0.005961 0.272868
v 0.496949 0.005961 0.272868
v 2.660841 -0.005002 0.016696
v 2.660841 0.004177 0.016696
v -2.660841 0.004177 -0.016696
v -0.496949 0.005961 -0.272868
v -0.496949 -0.005961 -0.272868
v -2.660841 -0.005002 -0.016696
vt 0.375000 0.000000
vt 0.625000 0.000000
vt 0.375000 0.250000
vt 0.625000 0.250000
vt 0.375000 0.500000
vt 0.625000 0.500000
vt 0.375000 0.750000
vt 0.625000 0.750000
vt 0.375000 1.000000
vt 0.625000 1.000000
vt 0.875000 0.000000
vt 0.875000 0.250000
vt 0.125000 0.000000
vt 0.125000 0.250000
vt 0.500000 0.000000
vt 0.500000 1.000000
vt 0.500000 0.750000
vt 0.500000 0.500000
vt 0.500000 0.250000
vt 0.512500 0.000000
vt 0.512500 1.000000
vt 0.512500 0.250000
vt 0.512500 0.500000
vt 0.512500 0.750000
vt 0.487500 0.000000
vt 0.487500 1.000000
vt 0.487500 0.750000
vt 0.487500 0.500000
vt 0.487500 0.250000
vt 0.512500 0.250000
vt 0.512500 0.000000
vt 0.625000 0.000000
vt 0.625000 0.250000
vt 0.375000 0.500000
vt 0.487500 0.500000
vt 0.487500 0.750000
vt 0.375000 0.750000
vn 0.039446 0.000000 0.999222
vn -0.168980 0.000000 0.985620
vn 0.059013 0.000000 0.998257
vn 0.059013 0.000000 0.998257
vn 0.049768 0.997989 -0.039253
vn -0.049768 0.997989 0.039253
vn 0.023837 0.989466 -0.142788
vn 0.002818 0.913088 -0.407753
vn 0.168980 0.000000 -0.985620
vn -0.039446 0.000000 -0.999222
vn 0.081851 0.000000 -0.996645
vn 0.042558 0.000000 -0.999094
vn 0.027419 -0.999390 -0.021626
vn -0.027419 -0.999390 0.021626
vn -0.004493 -0.977421 0.211254
vn 0.002046 -0.982501 0.186247
vn 0.918134 0.000000 -0.396270
vn 0.860804 0.000000 -0.508936
vn 0.860804 0.000000 -0.508936
vn 0.976954 0.000000 -0.213452
vn -0.918134 0.000000 0.396270
vn -0.860804 0.000000 0.508936
vn -0.860804 0.000000 0.508936
vn -0.976954 0.000000 0.213452
vn 0.004493 -0.977421 -0.211254
vn -0.002046 -0.982501 -0.186247
vn -0.059013 0.000000 -0.998257
vn -0.059013 0.000000 -0.998257
vn -0.023837 0.989466 0.142788
vn -0.002818 0.913088 0.407753
vn -0.081851 0.000000 0.996645
vn -0.042558 0.000000 0.999094
vn 0.117564 0.000000 0.993065
vn 0.117564 0.000000 0.993065
vn 0.117564 0.000000 0.993065
vn 0.117564 0.000000 0.993065
vn -0.018512 0.966058 -0.257663
vn -0.035607 0.894724 -0.445198
vn -0.013769 0.000000 -0.999905
vn -0.013769 0.000000 -0.999905
vn 0.028150 -0.971542 0.235188
vn 0.025231 -0.976873 0.212325
vn -0.025231 -0.976873 -0.212325
vn -0.028150 -0.971542 -0.235188
vn -0.117564 0.000000 -0.993065
vn -0.117564 0.000000 -0.993065
vn -0.117564 0.000000 -0.993065
vn -0.117564 0.000000 -0.993065
vn 0.035607 0.894724 0.445198
vn 0.018512 0.966058 0.257663
vn 0.013769 0.000000 0.999905
vn 0.013769 0.000000 0.999905
vn -0.437648 0.000000 0.899147
vn -0.437648 0.000000 0.899147
vn -0.437648 0.000000 0.899147
vn -0.437648 0.000000 0.899147
vn 0.018586 -0.986902 0.160245
vn 0.018586 -0.986902 0.160245
vn 0.985266 0.000000 -0.171028
vn 0.985266 0.000000 -0.171028
vn 0.018903 0.986958 0.159863
vn 0.018903 0.986958 0.159863
vn -0.018903 0.986958 -0.159863
vn -0.018903 0.986958 -0.159863
vn 0.437647 0.000000 -0.899147
vn 0.437648 0.000000 -0.899147
vn 0.437647 0.000000 -0.899147
vn 0.437648 0.000000 -0.899147
vn -0.018586 -0.986902 -0.160245
vn -0.018586 -0.986902 -0.160245
vn -0.985266 0.000000 0.171028
vn -0.985266 0.000000 0.171028
s 1
g pCube36
usemtl initialShadingGroup
f 12/19/1 9/15/2 13/20/3 14/22/4
s 2
f 11/18/5 12/19/6 14/22/7 15/23/8
s 3
f 10/17/9 11/18/10 15/23/11 16/24/12
s 4
f 9/16/13 10/17/14 16/24/15 13/21/16
s 5
f 2/2/17 8/11/18 6/12/19 4/4/20
s 6
f 7/13/21 1/1/22 3/3/23 5/14/24
s 4
f 17/26/25 18/27/26 10/17/14 9/16/13
s 3
f 18/27/27 19/28/28 11/18/10 10/17/9
s 2
f 19/28/29 20/29/30 12/19/6 11/18/5
s 1
f 20/29/31 17/25/32 9/15/2 12/19/1
s off
f 22/30/33 21/31/34 23/32/35 24/33/36
s 2
f 15/23/8 14/22/7 4/4/37 6/6/38
s 3
f 16/24/12 15/23/11 6/6/39 8/8/40
s 4
f 13/21/16 16/24/15 8/8/41 2/10/42
f 7/7/43 18/27/26 17/26/25 1/9/44
s off
f 25/34/45 26/35/46 27/36/47 28/37/48
s 2
f 3/3/49 20/29/30 19/28/29 5/5/50
s 1
f 1/1/51 17/25/32 20/29/31 3/3/52
s off
f 14/22/53 13/20/54 21/31/55 22/30/56
s 4
f 13/20/16 2/2/42 23/32/57 21/31/58
s 5
f 2/2/17 4/4/20 24/33/59 23/32/60
s 2
f 4/4/37 14/22/7 22/30/61 24/33/62
f 5/5/50 19/28/29 26/35/63 25/34/64
s off
f 19/28/65 18/27/66 27/36/67 26/35/68
s 4
f 18/27/26 7/7/43 28/37/69 27/36/70
s 6
f 7/7/21 5/5/24 25/34/71 28/37/72
