# This file uses centimeters as units for non-parametric coordinates.

mtllib Ground.mtl
g default
v -39.596578 -0.011333 39.596583
v 39.596583 -0.011333 39.596583
v -39.596578 -0.011333 -39.596583
v 39.596583 -0.011333 -39.596583
vt 0.375000 0.250000
vt 0.625000 0.250000
vt 0.625000 0.500000
vt 0.375000 0.500000
vn 0.000000 1.000000 0.000000
vn 0.000000 1.000000 0.000000
vn 0.000000 1.000000 0.000000
vn 0.000000 1.000000 0.000000
s off
g polySurface138 pCube119
usemtl initialShadingGroup
f 1/1/1 2/2/2 4/3/3 3/4/4
