# This file uses centimeters as units for non-parametric coordinates.

mtllib ParkingApron.mtl
g default
v -0.837663 -0.070696 0.456944
v -0.637663 -0.070696 0.456944
v -0.837663 0.929304 0.456944
v -0.637663 0.929304 0.456944
v -0.837663 0.929304 0.256944
v -0.637663 0.929304 0.256944
v -0.837663 -0.070696 0.256944
v -0.637663 -0.070696 0.256944
v 0.650241 -0.070696 -0.207652
v 0.850241 -0.070696 -0.207652
v 0.650241 0.929304 -0.207652
v 0.850241 0.929304 -0.207652
v 0.650241 0.929304 -0.407653
v 0.850241 0.929304 -0.407653
v 0.650241 -0.070696 -0.407653
v 0.850241 -0.070696 -0.407653
v -0.667976 0.905425 0.643315
v 0.670462 0.905425 0.643315
v -0.667976 1.005702 0.643315
v 0.670462 1.005702 0.643315
v -0.667976 1.005702 -0.631970
v 0.670462 1.005702 -0.631970
v -0.667976 0.905425 -0.631970
v 0.670462 0.905425 -0.631970
v -0.848757 1.005702 -0.421702
v 0.851243 1.005702 -0.421702
v 0.851243 0.905425 -0.421702
v -0.848757 0.905425 -0.421702
v -0.848757 1.005702 0.421732
v 0.851243 1.005702 0.421732
v 0.851243 0.905425 0.421732
v -0.848757 0.905425 0.421732
v -0.486753 0.905425 0.855673
v -0.486753 0.905425 0.421732
v -0.486753 0.905425 -0.421702
v -0.486753 0.905425 -0.844328
v -0.486753 1.005702 -0.844328
v -0.486753 1.005702 -0.421702
v -0.486753 1.005702 0.421732
v -0.486753 1.005702 0.855673
v 0.474786 0.905425 -0.421702
v 0.474786 0.905425 0.421732
v 0.474786 0.905425 0.855673
v 0.474786 1.005702 0.855673
v 0.474786 1.005702 0.421732
v 0.474786 1.005702 -0.421702
v 0.474786 1.005702 -0.844328
v 0.474786 0.905425 -0.844328
vt 0.879535 0.683652
vt 0.879535 0.613024
vt 0.906330 0.613024
vt 0.906330 0.683652
vt 0.906330 0.754675
vt 0.879535 0.754675
vt 0.906330 0.973230
vt 0.879535 0.973230
vt 0.855639 0.974819
vt 0.828844 0.974819
vt 0.828844 0.902601
vt 0.855639 0.902601
vt 0.828844 0.831578
vt 0.855639 0.831578
vt 0.828844 0.613024
vt 0.855639 0.613024
vt 0.291578 0.937003
vt 0.273299 0.937003
vt 0.273299 0.888821
vt 0.291578 0.888821
vt 0.273299 0.838129
vt 0.291578 0.838129
vt 0.238719 0.887395
vt 0.238719 0.838129
vt 0.256998 0.838129
vt 0.256998 0.887395
vt 0.256998 0.938087
vt 0.238719 0.938087
vt 0.307880 0.874586
vt 0.307880 0.838129
vt 0.338892 0.838129
vt 0.338892 0.874586
vt 0.354430 0.874585
vt 0.354430 0.838129
vt 0.385442 0.838129
vt 0.385442 0.874585
vt 0.400981 0.874586
vt 0.400981 0.838129
vt 0.431992 0.838129
vt 0.431992 0.874586
vt 0.447531 0.874585
vt 0.447531 0.838129
vt 0.478543 0.838129
vt 0.478543 0.874585
vt 0.480898 0.377716
vt 0.362715 0.377716
vt 0.362715 0.119356
vt 0.480898 0.119356
vt 0.362715 0.474984
vt 0.421515 0.426409
vt 0.126857 0.377716
vt 0.126857 0.119356
vt 0.362715 0.018205
vt 0.421515 0.066779
vt 0.126857 0.474984
vt 0.005510 0.377716
vt 0.005510 0.119356
vt 0.126857 0.018205
vt 0.064894 0.426409
vt 0.064894 0.066779
vt 0.627640 0.377716
vt 0.509457 0.377716
vt 0.509457 0.119357
vt 0.627640 0.119357
vt 0.568841 0.426410
vt 0.627640 0.474984
vt 0.568841 0.066779
vt 0.627640 0.018205
vt 0.863498 0.377716
vt 0.863498 0.119357
vt 0.863498 0.474984
vt 0.863498 0.018205
vt 0.984845 0.377716
vt 0.984845 0.119357
vt 0.925461 0.426410
vt 0.925461 0.066779
vt 0.930225 0.613024
vt 0.975685 0.613024
vt 0.975685 0.880227
vt 0.930225 0.880227
vt 0.687944 0.866879
vt 0.656932 0.866879
vt 0.656932 0.684597
vt 0.687944 0.684597
vt 0.610838 0.749126
vt 0.641849 0.749126
vt 0.641849 0.931408
vt 0.610838 0.931408
vt 0.595756 0.855725
vt 0.564744 0.855725
vt 0.564744 0.673442
vt 0.595756 0.673442
vt 0.437130 0.692609
vt 0.468142 0.673442
vt 0.549661 0.805343
vt 0.518650 0.824510
vt 0.391036 0.673442
vt 0.422048 0.692609
vt 0.340529 0.824510
vt 0.309517 0.805343
vt 0.181903 0.692609
vt 0.212915 0.673442
vt 0.294434 0.805343
vt 0.263423 0.824510
vt 0.135809 0.673442
vt 0.166821 0.692608
vt 0.085302 0.824509
vt 0.054290 0.805343
vt 0.113189 0.968910
vt 0.099963 0.977085
vt 0.019135 0.846303
vt 0.032362 0.838129
vt 0.141555 0.977085
vt 0.128328 0.968911
vt 0.209156 0.838129
vt 0.222383 0.846303
vn 0.000000 0.000000 1.000000
vn 0.000000 0.000000 1.000000
vn 0.000000 0.000000 1.000000
vn 0.000000 0.000000 1.000000
vn 0.000000 1.000000 0.000000
vn 0.000000 1.000000 0.000000
vn 0.000000 1.000000 0.000000
vn 0.000000 1.000000 0.000000
vn 0.000000 0.000000 -1.000000
vn 0.000000 0.000000 -1.000000
vn 0.000000 0.000000 -1.000000
vn 0.000000 0.000000 -1.000000
vn 0.000000 -1.000000 0.000000
vn 0.000000 -1.000000 0.000000
vn 0.000000 -1.000000 0.000000
vn 0.000000 -1.000000 0.000000
vn 1.000000 0.000000 0.000000
vn 1.000000 0.000000 0.000000
vn 1.000000 0.000000 0.000000
vn 1.000000 0.000000 0.000000
vn -1.000000 0.000000 0.000000
vn -1.000000 0.000000 0.000000
vn -1.000000 0.000000 0.000000
vn -1.000000 0.000000 0.000000
vn 0.000000 0.000000 1.000000
vn 0.000000 0.000000 1.000000
vn 0.000000 0.000000 1.000000
vn 0.000000 0.000000 1.000000
vn 0.000000 1.000000 0.000000
vn 0.000000 1.000000 0.000000
vn 0.000000 1.000000 0.000000
vn 0.000000 1.000000 0.000000
vn 0.000000 0.000000 -1.000000
vn 0.000000 0.000000 -1.000000
vn 0.000000 0.000000 -1.000000
vn 0.000000 0.000000 -1.000000
vn 0.000000 -1.000000 0.000000
vn 0.000000 -1.000000 0.000000
vn 0.000000 -1.000000 0.000000
vn 0.000000 -1.000000 0.000000
vn 1.000000 0.000000 0.000000
vn 1.000000 0.000000 0.000000
vn 1.000000 0.000000 0.000000
vn 1.000000 0.000000 0.000000
vn -1.000000 0.000000 0.000000
vn -1.000000 0.000000 0.000000
vn -1.000000 0.000000 0.000000
vn -1.000000 0.000000 0.000000
vn -0.182701 0.000000 0.983169
vn -0.182701 0.000000 0.983169
vn 0.180493 0.000000 0.983576
vn 0.180493 0.000000 0.983576
vn 0.000000 1.000000 -0.000000
vn 0.000000 1.000000 -0.000000
vn 0.000000 1.000000 -0.000000
vn 0.000000 1.000000 -0.000000
vn -0.182701 0.000000 -0.983169
vn -0.182701 0.000000 -0.983169
vn 0.180494 0.000000 -0.983576
vn 0.180494 0.000000 -0.983576
vn 0.000000 -1.000000 0.000000
vn 0.000000 -1.000000 0.000000
vn 0.000000 -1.000000 0.000000
vn 0.000000 -1.000000 0.000000
vn 0.985600 0.000000 -0.169097
vn 0.985600 0.000000 -0.169097
vn 0.758274 0.000000 -0.651936
vn 0.758274 0.000000 -0.651936
vn -0.758274 0.000000 -0.651936
vn -0.985600 0.000000 -0.169097
vn -0.985600 0.000000 -0.169097
vn -0.758274 0.000000 -0.651936
vn 0.000000 1.000000 0.000000
vn 0.000000 1.000000 0.000000
vn 0.985898 0.000000 0.167351
vn 0.985898 0.000000 0.167351
vn 0.000000 -1.000000 -0.000000
vn 0.000000 -1.000000 -0.000000
vn -0.985898 0.000000 0.167351
vn -0.985898 0.000000 0.167351
vn 0.000000 1.000000 0.000000
vn 0.000000 1.000000 0.000000
vn 0.774839 0.000000 0.632159
vn 0.774839 0.000000 0.632159
vn 0.000000 -1.000000 -0.000000
vn 0.000000 -1.000000 -0.000000
vn -0.774839 0.000000 0.632159
vn -0.774839 0.000000 0.632159
vn 0.000000 -1.000000 -0.000000
vn 0.000000 -1.000000 -0.000000
vn 0.000000 -1.000000 0.000000
vn 0.000000 -1.000000 0.000000
vn -0.760666 0.000000 -0.649143
vn -0.760666 0.000000 -0.649143
vn 0.000000 1.000000 0.000000
vn 0.000000 1.000000 0.000000
vn 0.000000 1.000000 -0.000000
vn 0.000000 1.000000 -0.000000
vn -0.760666 0.000000 0.649143
vn -0.760666 0.000000 0.649143
vn 0.000000 -1.000000 0.000000
vn 0.000000 -1.000000 -0.000000
vn 0.000000 -1.000000 -0.000000
vn 0.735400 0.000000 0.677634
vn 0.735400 0.000000 0.677634
vn 0.000000 1.000000 0.000000
vn 0.000000 1.000000 0.000000
vn 0.000000 1.000000 0.000000
vn 0.000000 1.000000 0.000000
vn 0.735400 0.000000 -0.677634
vn 0.735400 0.000000 -0.677634
vn 0.000000 -1.000000 0.000000
s off
g pCube32
usemtl initialShadingGroup
f 1/77/1 2/78/2 4/79/3 3/80/4
f 3/29/5 4/30/6 6/31/7 5/32/8
f 5/81/9 6/82/10 8/83/11 7/84/12
f 7/33/13 8/34/14 2/35/15 1/36/16
f 2/93/17 8/94/18 6/95/19 4/96/20
f 7/97/21 1/98/22 3/99/23 5/100/24
f 9/85/25 10/86/26 12/87/27 11/88/28
f 11/37/29 12/38/30 14/39/31 13/40/32
f 13/89/33 14/90/34 16/91/35 15/92/36
f 15/41/37 16/42/38 10/43/39 9/44/40
f 10/101/41 16/102/42 14/103/43 12/104/44
f 15/105/45 9/106/46 11/107/47 13/108/48
s 1
f 40/14/49 33/13/50 43/15/51 44/16/52
s 2
f 37/45/53 38/46/54 46/47/55 47/48/56
s 3
f 36/6/57 37/5/58 47/7/59 48/8/60
s 4
f 35/61/61 36/62/62 48/63/63 41/64/64
s 5
f 26/17/65 27/18/66 24/19/67 22/20/68
s 6
f 23/1/69 28/2/70 25/3/71 21/4/72
s 2
f 38/46/54 39/51/73 45/52/74 46/47/55
s 5
f 30/109/75 31/110/76 27/111/66 26/112/65
s 4
f 34/69/77 35/61/61 41/64/64 42/70/78
s 6
f 25/113/71 28/114/70 32/115/79 29/116/80
s 2
f 39/51/73 40/56/81 44/57/82 45/52/74
s 5
f 18/23/83 31/24/76 30/25/75 20/26/84
s 4
f 33/73/85 34/69/77 42/70/78 43/74/86
s 6
f 29/9/80 32/10/79 17/11/87 19/12/88
s 4
f 32/71/89 34/69/77 33/73/85 17/75/90
f 28/66/91 35/61/61 34/69/77 32/71/89
f 23/65/92 36/62/62 35/61/61 28/66/91
s 3
f 21/4/93 37/5/58 36/6/57 23/1/94
s 2
f 25/49/95 38/46/54 37/45/53 21/50/96
f 29/55/97 39/51/73 38/46/54 25/49/95
f 19/59/98 40/56/81 39/51/73 29/55/97
s 1
f 17/11/99 33/13/50 40/14/49 19/12/100
s 4
f 42/70/78 41/64/64 27/68/101 31/72/102
f 43/74/86 42/70/78 31/72/102 18/76/103
s 1
f 44/27/52 43/28/51 18/23/104 20/26/105
s 2
f 45/52/74 44/57/82 20/60/106 30/58/107
f 46/47/55 45/52/74 30/58/107 26/53/108
f 47/48/56 46/47/55 26/53/108 22/54/109
s 3
f 48/21/60 47/22/59 22/20/110 24/19/111
s 4
f 41/64/64 48/63/63 24/67/112 27/68/101
